<svg width="755" height="187" viewBox="0 0 755 187" fill="none" xmlns="http://www.w3.org/2000/svg">
<g opacity="0.1">
<path d="M23.598 182.576V20.3859H101.681C116.819 20.3859 129.871 22.8574 140.838 27.8003C151.96 32.7432 160.533 39.8487 166.557 49.1167C172.581 58.2302 175.593 69.0429 175.593 81.5546C175.593 94.0664 172.581 104.879 166.557 113.993C160.533 123.106 151.96 130.212 140.838 135.309C129.871 140.252 116.819 142.723 101.681 142.723H53.9507L78.2792 119.322V182.576H23.598ZM78.2792 125.346L53.9507 100.554H98.2054C105.774 100.554 111.335 98.8549 114.888 95.4566C118.595 92.0584 120.449 87.4244 120.449 81.5546C120.449 75.6849 118.595 71.0509 114.888 67.6527C111.335 64.2544 105.774 62.5553 98.2054 62.5553H53.9507L78.2792 37.7634V125.346Z" fill="white"/>
<path d="M193.526 182.576V20.3859H271.609C286.747 20.3859 299.799 22.8574 310.766 27.8003C321.888 32.7432 330.461 39.8487 336.485 49.1167C342.509 58.2302 345.521 69.0429 345.521 81.5546C345.521 94.0664 342.509 104.879 336.485 113.993C330.461 122.952 321.888 129.825 310.766 134.614C299.799 139.402 286.747 141.797 271.609 141.797H223.879L248.207 119.322V182.576H193.526ZM290.608 182.576L250.756 123.492H308.681L348.997 182.576H290.608ZM248.207 125.346L223.879 100.554H268.134C275.702 100.554 281.263 98.8549 284.816 95.4566C288.523 92.0584 290.377 87.4244 290.377 81.5546C290.377 75.6849 288.523 71.0509 284.816 67.6527C281.263 64.2544 275.702 62.5553 268.134 62.5553H223.879L248.207 37.7634V125.346Z" fill="white"/>
<path d="M366.17 182.576V20.3859H420.851V182.576H366.17Z" fill="white"/>
<path d="M531.05 186.283C518.074 186.283 506.026 184.275 494.904 180.259C483.937 176.088 474.36 170.218 466.174 162.65C458.141 155.081 451.885 146.122 447.406 135.772C442.926 125.423 440.687 113.993 440.687 101.481C440.687 88.969 442.926 77.5385 447.406 67.1893C451.885 56.84 458.141 47.881 466.174 40.3121C474.36 32.7432 483.937 26.9507 494.904 22.9346C506.026 18.764 518.074 16.6787 531.05 16.6787C546.96 16.6787 561.016 19.4591 573.219 25.0199C585.576 30.5807 595.771 38.613 603.803 49.1167L569.28 79.9328C564.492 73.9086 559.162 69.2746 553.293 66.0308C547.577 62.6325 541.09 60.9334 533.83 60.9334C528.115 60.9334 522.94 61.8602 518.306 63.7138C513.672 65.5674 509.656 68.2705 506.258 71.8233C503.014 75.376 500.465 79.7011 498.612 84.7984C496.758 89.7414 495.831 95.3022 495.831 101.481C495.831 107.659 496.758 113.298 498.612 118.395C500.465 123.338 503.014 127.586 506.258 131.138C509.656 134.691 513.672 137.394 518.306 139.248C522.94 141.101 528.115 142.028 533.83 142.028C541.09 142.028 547.577 140.406 553.293 137.163C559.162 133.764 564.492 129.053 569.28 123.029L603.803 153.845C595.771 164.194 585.576 172.226 573.219 177.942C561.016 183.503 546.96 186.283 531.05 186.283Z" fill="white"/>
<path d="M669.639 80.6278H741.929V120.017H669.639V80.6278ZM673.346 141.333H754.441V182.576H619.591V20.3859H751.429V61.6285H673.346V141.333Z" fill="white"/>
</g>
<path opacity="0.5" d="M0.720145 167V167.486H1.20691H55.8881H56.3748V167V127.634H79.2897C94.4792 127.634 107.603 125.154 118.647 120.177L118.65 120.175C129.844 115.045 138.492 107.883 144.572 98.6849C150.656 89.4806 153.689 78.5714 153.689 65.9785C153.689 53.3864 150.656 42.4779 144.573 33.2741C138.493 23.9202 129.844 16.7569 118.646 11.7799C107.602 6.80262 94.4787 4.32297 79.2897 4.32297H1.20691H0.720145V4.80973V167ZM75.8142 84.4911H56.3748V47.4659H75.8142C83.3234 47.4659 88.7364 49.1533 92.1602 52.4282L92.1601 52.4283L92.1677 52.4353C95.7573 55.7258 97.5707 60.2202 97.5707 65.9785C97.5707 71.7367 95.7573 76.2312 92.1677 79.5216L92.1676 79.5216L92.1602 79.5287C88.7364 82.8036 83.3234 84.4911 75.8142 84.4911ZM170.648 167V167.486H171.135H225.816H226.303V167V126.707H240.453L267.814 167.272L267.959 167.486H268.217H326.606H327.527L327.008 166.725L293.258 117.265C302.209 112.619 309.294 106.428 314.498 98.6881L314.5 98.6849C320.584 89.4806 323.617 78.5714 323.617 65.9785C323.617 53.3857 320.584 42.4769 314.5 33.2727C308.42 23.9195 299.771 16.7566 288.574 11.78C277.531 6.80263 264.407 4.32297 249.218 4.32297H171.135H170.648V4.80973V167ZM245.742 84.4911H226.303V47.4659H245.742C253.252 47.4659 258.665 49.1533 262.088 52.4283L262.096 52.4353C265.686 55.7258 267.499 60.2202 267.499 65.9785C267.499 71.7367 265.686 76.2312 262.096 79.5216L262.088 79.5287C258.665 82.8036 253.252 84.4911 245.742 84.4911ZM343.292 167V167.486H343.779H398.46H398.947V167V4.80973V4.32297H398.46H343.779H343.292V4.80973V167ZM443.449 147.428L443.452 147.431C451.687 155.044 461.318 160.946 472.34 165.138L472.348 165.14C483.527 169.177 495.632 171.194 508.658 171.194C524.625 171.194 538.753 168.403 551.03 162.809L551.032 162.807C563.457 157.061 573.715 148.98 581.797 138.567L582.075 138.208L581.736 137.906L547.213 107.09L546.828 106.746L546.508 107.15C541.753 113.132 536.47 117.8 530.66 121.164C525.026 124.361 518.623 125.965 511.439 125.965C505.777 125.965 500.664 125.047 496.096 123.22C491.527 121.392 487.571 118.73 484.222 115.23C481.026 111.729 478.51 107.537 476.677 102.649C474.846 97.613 473.927 92.0332 473.927 85.9047C473.927 79.7746 474.846 74.273 476.676 69.3932L476.678 69.3886C478.512 64.3454 481.028 60.0786 484.222 56.5793C487.571 53.0797 491.527 50.417 496.096 48.5895C500.664 46.762 505.777 45.844 511.439 45.844C518.619 45.844 525.02 47.5235 530.653 50.873L530.659 50.8769L530.666 50.8806C536.472 54.0891 541.753 58.6782 546.508 64.6595L546.828 65.0629L547.213 64.7197L581.736 33.9036L582.073 33.6032L581.799 33.2448C573.716 22.6753 563.457 14.5929 551.028 8.99984C538.751 3.40592 524.624 0.615775 508.658 0.615775C495.631 0.615775 483.525 2.70955 472.344 6.9021C461.32 10.9392 451.688 16.7644 443.452 24.3785L443.449 24.3817C435.367 31.9969 429.073 41.0111 424.568 51.4197C420.059 61.8364 417.809 73.3337 417.809 85.9047C417.809 98.4756 420.059 109.973 424.568 120.39C429.073 130.798 435.367 139.812 443.449 147.428ZM651.441 104.927H719.538H720.025V104.441V65.0517V64.5649H719.538H651.441V46.5391H729.037H729.524V46.0523V4.80973V4.32297H729.037H597.2H596.714V4.80973V167V167.486H597.2H732.05H732.536V167V125.757V125.27H732.05H651.441V104.927Z" stroke="white" stroke-width="0.973529"/>
</svg>
