<svg width="285" height="37" viewBox="0 0 285 37" fill="none" xmlns="http://www.w3.org/2000/svg">
<mask id="path-1-outside-1_2183_108" maskUnits="userSpaceOnUse" x="0.566582" y="-0.255005" width="285" height="37" fill="black">
<rect fill="white" x="0.566582" y="-0.255005" width="285" height="37"/>
<path d="M14.9766 3.31999C17.4366 3.31999 19.5216 3.58999 21.2316 4.12999C22.9416 4.63999 24.3066 5.50999 25.3266 6.74C26.3766 7.94 27.1416 9.59 27.6216 11.69C28.1016 13.76 28.3416 16.355 28.3416 19.475C28.3416 22.595 28.1016 25.205 27.6216 27.305C27.1416 29.375 26.3766 31.025 25.3266 32.255C24.3066 33.455 22.9416 34.325 21.2316 34.865C19.5216 35.375 17.4366 35.63 14.9766 35.63C12.5166 35.63 10.4316 35.375 8.72158 34.865C7.01158 34.325 5.63158 33.455 4.58158 32.255C3.53158 31.025 2.76658 29.375 2.28658 27.305C1.80658 25.205 1.56658 22.595 1.56658 19.475C1.56658 16.355 1.80658 13.76 2.28658 11.69C2.76658 9.59 3.53158 7.94 4.58158 6.74C5.63158 5.50999 7.01158 4.63999 8.72158 4.12999C10.4316 3.58999 12.5166 3.31999 14.9766 3.31999ZM14.9766 8.765C13.3866 8.765 12.1416 9.08 11.2416 9.70999C10.3716 10.34 9.74158 11.435 9.35158 12.995C8.99158 14.525 8.81158 16.685 8.81158 19.475C8.81158 22.235 8.99158 24.395 9.35158 25.955C9.74158 27.515 10.3716 28.61 11.2416 29.24C12.1416 29.87 13.3866 30.185 14.9766 30.185C16.5366 30.185 17.7516 29.87 18.6216 29.24C19.5216 28.61 20.1516 27.515 20.5116 25.955C20.9016 24.395 21.0966 22.235 21.0966 19.475C21.0966 16.685 20.9016 14.525 20.5116 12.995C20.1516 11.435 19.5216 10.34 18.6216 9.70999C17.7516 9.08 16.5366 8.765 14.9766 8.765ZM43.5291 12.185C44.3091 12.185 45.1791 12.23 46.1391 12.32C47.1291 12.38 48.1041 12.515 49.0641 12.725C50.0541 12.905 50.9541 13.175 51.7641 13.535L51.0441 17.72C49.8141 17.69 48.6591 17.66 47.5791 17.63C46.4991 17.6 45.5241 17.585 44.6541 17.585C43.3041 17.585 42.2241 17.765 41.4141 18.125C40.6341 18.485 40.0791 19.13 39.7491 20.06C39.4191 20.96 39.2541 22.22 39.2541 23.84C39.2541 25.49 39.4191 26.78 39.7491 27.71C40.0791 28.64 40.6341 29.285 41.4141 29.645C42.2241 30.005 43.3041 30.185 44.6541 30.185C45.1341 30.185 45.7491 30.17 46.4991 30.14C47.2491 30.11 48.0591 30.08 48.9291 30.05C49.7991 29.99 50.6541 29.9 51.4941 29.78L52.1241 34.01C50.9241 34.55 49.5591 34.94 48.0291 35.18C46.4991 35.42 44.9841 35.54 43.4841 35.54C40.7241 35.54 38.5191 35.165 36.8691 34.415C35.2491 33.635 34.0791 32.39 33.3591 30.68C32.6391 28.97 32.2791 26.69 32.2791 23.84C32.2791 20.99 32.6391 18.71 33.3591 17C34.0791 15.29 35.2641 14.06 36.9141 13.31C38.5641 12.56 40.7691 12.185 43.5291 12.185ZM66.4299 12.185C69.2199 12.185 71.4549 12.575 73.1349 13.355C74.8149 14.105 76.0149 15.335 76.7349 17.045C77.4849 18.755 77.8599 21.05 77.8599 23.93C77.8599 26.75 77.4849 29.015 76.7349 30.725C76.0149 32.435 74.8149 33.665 73.1349 34.415C71.4549 35.165 69.2199 35.54 66.4299 35.54C63.6399 35.54 61.4049 35.165 59.7249 34.415C58.0449 33.665 56.8299 32.435 56.0799 30.725C55.3299 29.015 54.9549 26.75 54.9549 23.93C54.9549 21.05 55.3299 18.755 56.0799 17.045C56.8299 15.335 58.0449 14.105 59.7249 13.355C61.4049 12.575 63.6399 12.185 66.4299 12.185ZM66.4299 17.045C65.2899 17.045 64.3899 17.24 63.7299 17.63C63.0699 18.02 62.6049 18.71 62.3349 19.7C62.0649 20.69 61.9299 22.1 61.9299 23.93C61.9299 25.73 62.0649 27.125 62.3349 28.115C62.6049 29.105 63.0699 29.795 63.7299 30.185C64.3899 30.545 65.2899 30.725 66.4299 30.725C67.5699 30.725 68.4699 30.545 69.1299 30.185C69.7899 29.795 70.2399 29.105 70.4799 28.115C70.7499 27.125 70.8849 25.73 70.8849 23.93C70.8849 22.1 70.7499 20.69 70.4799 19.7C70.2399 18.71 69.7899 18.02 69.1299 17.63C68.4699 17.24 67.5699 17.045 66.4299 17.045ZM102.287 1.745L103.367 6.82999C102.377 7.39999 101.417 7.80499 100.487 8.04499C99.5868 8.28499 98.7018 8.45 97.8318 8.54C96.9618 8.6 96.0918 8.675 95.2218 8.765C94.3818 8.825 93.5118 8.97499 92.6118 9.215C91.5618 9.515 90.7068 9.90499 90.0468 10.385C89.3868 10.865 88.8768 11.405 88.5168 12.005C88.1868 12.575 87.9318 13.19 87.7518 13.85C87.4818 14.42 87.3018 14.99 87.2118 15.56C87.1218 16.1 87.0318 16.625 86.9418 17.135H87.0768C87.4668 16.625 87.8868 16.16 88.3368 15.74C88.7868 15.29 89.3118 14.9 89.9118 14.57C90.5418 14.24 91.2768 13.985 92.1168 13.805C92.9868 13.625 93.9918 13.535 95.1318 13.535C97.4718 13.535 99.3318 13.895 100.712 14.615C102.092 15.335 103.082 16.475 103.682 18.035C104.282 19.565 104.582 21.59 104.582 24.11C104.582 26.6 104.252 28.7 103.592 30.41C102.932 32.09 101.792 33.365 100.172 34.235C98.5818 35.105 96.3768 35.54 93.5568 35.54C91.3668 35.54 89.5518 35.3 88.1118 34.82C86.7018 34.34 85.5768 33.68 84.7368 32.84C83.9268 32 83.3268 30.98 82.9368 29.78C82.5768 28.58 82.3368 27.26 82.2168 25.82C82.1268 24.38 82.0818 22.85 82.0818 21.23C82.0818 19.01 82.1868 17 82.3968 15.2C82.6068 13.37 82.9968 11.75 83.5668 10.34C84.1368 8.92999 84.9618 7.72999 86.0418 6.74C87.1518 5.75 88.5918 4.955 90.3618 4.35499C91.4118 4.02499 92.4318 3.78499 93.4218 3.63499C94.4118 3.485 95.3868 3.36499 96.3468 3.27499C97.3368 3.185 98.3118 3.035 99.2718 2.82499C100.262 2.61499 101.267 2.25499 102.287 1.745ZM93.4668 17.855C92.1768 17.855 91.2018 18.065 90.5418 18.485C89.9118 18.905 89.4768 19.565 89.2368 20.465C89.0268 21.335 88.9218 22.535 88.9218 24.065C88.9218 25.805 89.0568 27.17 89.3268 28.16C89.5968 29.12 90.0468 29.795 90.6768 30.185C91.3068 30.545 92.1768 30.725 93.2868 30.725C94.3668 30.725 95.2218 30.545 95.8518 30.185C96.4818 29.795 96.9318 29.12 97.2018 28.16C97.4718 27.2 97.6068 25.835 97.6068 24.065C97.6068 22.415 97.4868 21.14 97.2468 20.24C97.0068 19.34 96.5868 18.725 95.9868 18.395C95.3868 18.035 94.5468 17.855 93.4668 17.855ZM119.689 12.185C123.469 12.185 126.169 12.83 127.789 14.12C129.409 15.38 130.234 17.27 130.264 19.79C130.294 21.83 129.784 23.36 128.734 24.38C127.684 25.37 125.869 25.865 123.289 25.865H110.824V22.13H121.444C122.434 22.13 123.079 21.92 123.379 21.5C123.679 21.05 123.814 20.435 123.784 19.655C123.784 18.605 123.484 17.885 122.884 17.495C122.314 17.075 121.324 16.865 119.914 16.865C118.684 16.865 117.724 17.03 117.034 17.36C116.374 17.69 115.909 18.32 115.639 19.25C115.369 20.18 115.234 21.53 115.234 23.3C115.234 25.16 115.399 26.6 115.729 27.62C116.059 28.61 116.614 29.3 117.394 29.69C118.204 30.08 119.299 30.275 120.679 30.275C121.729 30.275 123.004 30.245 124.504 30.185C126.034 30.095 127.564 29.96 129.094 29.78L129.679 33.875C128.839 34.295 127.864 34.625 126.754 34.865C125.644 35.105 124.504 35.27 123.334 35.36C122.164 35.48 121.024 35.54 119.914 35.54C117.124 35.54 114.859 35.135 113.119 34.325C111.409 33.485 110.164 32.21 109.384 30.5C108.634 28.79 108.259 26.6 108.259 23.93C108.259 21.02 108.649 18.71 109.429 17C110.209 15.29 111.439 14.06 113.119 13.31C114.799 12.56 116.989 12.185 119.689 12.185ZM141.264 12.77V35H134.694V12.77H141.264ZM150.174 21.005V25.55H140.994V21.005H150.174ZM156.339 12.77V35H149.769V12.77H156.339ZM168.51 12.77V35H161.94V12.77H168.51ZM177.42 21.005V25.55H168.24V21.005H177.42ZM183.585 12.77V35H177.015V12.77H183.585ZM199.716 12.185C202.506 12.185 204.741 12.575 206.421 13.355C208.101 14.105 209.301 15.335 210.021 17.045C210.771 18.755 211.146 21.05 211.146 23.93C211.146 26.75 210.771 29.015 210.021 30.725C209.301 32.435 208.101 33.665 206.421 34.415C204.741 35.165 202.506 35.54 199.716 35.54C196.926 35.54 194.691 35.165 193.011 34.415C191.331 33.665 190.116 32.435 189.366 30.725C188.616 29.015 188.241 26.75 188.241 23.93C188.241 21.05 188.616 18.755 189.366 17.045C190.116 15.335 191.331 14.105 193.011 13.355C194.691 12.575 196.926 12.185 199.716 12.185ZM199.716 17.045C198.576 17.045 197.676 17.24 197.016 17.63C196.356 18.02 195.891 18.71 195.621 19.7C195.351 20.69 195.216 22.1 195.216 23.93C195.216 25.73 195.351 27.125 195.621 28.115C195.891 29.105 196.356 29.795 197.016 30.185C197.676 30.545 198.576 30.725 199.716 30.725C200.856 30.725 201.756 30.545 202.416 30.185C203.076 29.795 203.526 29.105 203.766 28.115C204.036 27.125 204.171 25.73 204.171 23.93C204.171 22.1 204.036 20.69 203.766 19.7C203.526 18.71 203.076 18.02 202.416 17.63C201.756 17.24 200.856 17.045 199.716 17.045ZM226.078 12.185C226.858 12.185 227.728 12.23 228.688 12.32C229.678 12.38 230.653 12.515 231.613 12.725C232.603 12.905 233.503 13.175 234.313 13.535L233.593 17.72C232.363 17.69 231.208 17.66 230.128 17.63C229.048 17.6 228.073 17.585 227.203 17.585C225.853 17.585 224.773 17.765 223.963 18.125C223.183 18.485 222.628 19.13 222.298 20.06C221.968 20.96 221.803 22.22 221.803 23.84C221.803 25.49 221.968 26.78 222.298 27.71C222.628 28.64 223.183 29.285 223.963 29.645C224.773 30.005 225.853 30.185 227.203 30.185C227.683 30.185 228.298 30.17 229.048 30.14C229.798 30.11 230.608 30.08 231.478 30.05C232.348 29.99 233.203 29.9 234.043 29.78L234.673 34.01C233.473 34.55 232.108 34.94 230.578 35.18C229.048 35.42 227.533 35.54 226.033 35.54C223.273 35.54 221.068 35.165 219.418 34.415C217.798 33.635 216.628 32.39 215.908 30.68C215.188 28.97 214.828 26.69 214.828 23.84C214.828 20.99 215.188 18.71 215.908 17C216.628 15.29 217.813 14.06 219.463 13.31C221.113 12.56 223.318 12.185 226.078 12.185ZM250.817 12.77V35H244.157V12.77H250.817ZM258.197 12.77V17.9H236.732V12.77H258.197ZM283.653 12.77V35L277.668 35.045V23.39C277.668 22.79 277.683 22.205 277.713 21.635C277.773 21.065 277.848 20.45 277.938 19.79H277.758C277.578 20.33 277.323 20.915 276.993 21.545C276.663 22.145 276.348 22.67 276.048 23.12L267.633 35H261.828V12.77H267.768V24.74C267.768 25.28 267.753 25.82 267.723 26.36C267.693 26.87 267.633 27.425 267.543 28.025H267.678C267.918 27.455 268.173 26.93 268.443 26.45C268.743 25.94 269.043 25.46 269.343 25.01L277.893 12.77H283.653Z"/>
</mask>
<path d="M14.9766 3.31999C17.4366 3.31999 19.5216 3.58999 21.2316 4.12999C22.9416 4.63999 24.3066 5.50999 25.3266 6.74C26.3766 7.94 27.1416 9.59 27.6216 11.69C28.1016 13.76 28.3416 16.355 28.3416 19.475C28.3416 22.595 28.1016 25.205 27.6216 27.305C27.1416 29.375 26.3766 31.025 25.3266 32.255C24.3066 33.455 22.9416 34.325 21.2316 34.865C19.5216 35.375 17.4366 35.63 14.9766 35.63C12.5166 35.63 10.4316 35.375 8.72158 34.865C7.01158 34.325 5.63158 33.455 4.58158 32.255C3.53158 31.025 2.76658 29.375 2.28658 27.305C1.80658 25.205 1.56658 22.595 1.56658 19.475C1.56658 16.355 1.80658 13.76 2.28658 11.69C2.76658 9.59 3.53158 7.94 4.58158 6.74C5.63158 5.50999 7.01158 4.63999 8.72158 4.12999C10.4316 3.58999 12.5166 3.31999 14.9766 3.31999ZM14.9766 8.765C13.3866 8.765 12.1416 9.08 11.2416 9.70999C10.3716 10.34 9.74158 11.435 9.35158 12.995C8.99158 14.525 8.81158 16.685 8.81158 19.475C8.81158 22.235 8.99158 24.395 9.35158 25.955C9.74158 27.515 10.3716 28.61 11.2416 29.24C12.1416 29.87 13.3866 30.185 14.9766 30.185C16.5366 30.185 17.7516 29.87 18.6216 29.24C19.5216 28.61 20.1516 27.515 20.5116 25.955C20.9016 24.395 21.0966 22.235 21.0966 19.475C21.0966 16.685 20.9016 14.525 20.5116 12.995C20.1516 11.435 19.5216 10.34 18.6216 9.70999C17.7516 9.08 16.5366 8.765 14.9766 8.765ZM43.5291 12.185C44.3091 12.185 45.1791 12.23 46.1391 12.32C47.1291 12.38 48.1041 12.515 49.0641 12.725C50.0541 12.905 50.9541 13.175 51.7641 13.535L51.0441 17.72C49.8141 17.69 48.6591 17.66 47.5791 17.63C46.4991 17.6 45.5241 17.585 44.6541 17.585C43.3041 17.585 42.2241 17.765 41.4141 18.125C40.6341 18.485 40.0791 19.13 39.7491 20.06C39.4191 20.96 39.2541 22.22 39.2541 23.84C39.2541 25.49 39.4191 26.78 39.7491 27.71C40.0791 28.64 40.6341 29.285 41.4141 29.645C42.2241 30.005 43.3041 30.185 44.6541 30.185C45.1341 30.185 45.7491 30.17 46.4991 30.14C47.2491 30.11 48.0591 30.08 48.9291 30.05C49.7991 29.99 50.6541 29.9 51.4941 29.78L52.1241 34.01C50.9241 34.55 49.5591 34.94 48.0291 35.18C46.4991 35.42 44.9841 35.54 43.4841 35.54C40.7241 35.54 38.5191 35.165 36.8691 34.415C35.2491 33.635 34.0791 32.39 33.3591 30.68C32.6391 28.97 32.2791 26.69 32.2791 23.84C32.2791 20.99 32.6391 18.71 33.3591 17C34.0791 15.29 35.2641 14.06 36.9141 13.31C38.5641 12.56 40.7691 12.185 43.5291 12.185ZM66.4299 12.185C69.2199 12.185 71.4549 12.575 73.1349 13.355C74.8149 14.105 76.0149 15.335 76.7349 17.045C77.4849 18.755 77.8599 21.05 77.8599 23.93C77.8599 26.75 77.4849 29.015 76.7349 30.725C76.0149 32.435 74.8149 33.665 73.1349 34.415C71.4549 35.165 69.2199 35.54 66.4299 35.54C63.6399 35.54 61.4049 35.165 59.7249 34.415C58.0449 33.665 56.8299 32.435 56.0799 30.725C55.3299 29.015 54.9549 26.75 54.9549 23.93C54.9549 21.05 55.3299 18.755 56.0799 17.045C56.8299 15.335 58.0449 14.105 59.7249 13.355C61.4049 12.575 63.6399 12.185 66.4299 12.185ZM66.4299 17.045C65.2899 17.045 64.3899 17.24 63.7299 17.63C63.0699 18.02 62.6049 18.71 62.3349 19.7C62.0649 20.69 61.9299 22.1 61.9299 23.93C61.9299 25.73 62.0649 27.125 62.3349 28.115C62.6049 29.105 63.0699 29.795 63.7299 30.185C64.3899 30.545 65.2899 30.725 66.4299 30.725C67.5699 30.725 68.4699 30.545 69.1299 30.185C69.7899 29.795 70.2399 29.105 70.4799 28.115C70.7499 27.125 70.8849 25.73 70.8849 23.93C70.8849 22.1 70.7499 20.69 70.4799 19.7C70.2399 18.71 69.7899 18.02 69.1299 17.63C68.4699 17.24 67.5699 17.045 66.4299 17.045ZM102.287 1.745L103.367 6.82999C102.377 7.39999 101.417 7.80499 100.487 8.04499C99.5868 8.28499 98.7018 8.45 97.8318 8.54C96.9618 8.6 96.0918 8.675 95.2218 8.765C94.3818 8.825 93.5118 8.97499 92.6118 9.215C91.5618 9.515 90.7068 9.90499 90.0468 10.385C89.3868 10.865 88.8768 11.405 88.5168 12.005C88.1868 12.575 87.9318 13.19 87.7518 13.85C87.4818 14.42 87.3018 14.99 87.2118 15.56C87.1218 16.1 87.0318 16.625 86.9418 17.135H87.0768C87.4668 16.625 87.8868 16.16 88.3368 15.74C88.7868 15.29 89.3118 14.9 89.9118 14.57C90.5418 14.24 91.2768 13.985 92.1168 13.805C92.9868 13.625 93.9918 13.535 95.1318 13.535C97.4718 13.535 99.3318 13.895 100.712 14.615C102.092 15.335 103.082 16.475 103.682 18.035C104.282 19.565 104.582 21.59 104.582 24.11C104.582 26.6 104.252 28.7 103.592 30.41C102.932 32.09 101.792 33.365 100.172 34.235C98.5818 35.105 96.3768 35.54 93.5568 35.54C91.3668 35.54 89.5518 35.3 88.1118 34.82C86.7018 34.34 85.5768 33.68 84.7368 32.84C83.9268 32 83.3268 30.98 82.9368 29.78C82.5768 28.58 82.3368 27.26 82.2168 25.82C82.1268 24.38 82.0818 22.85 82.0818 21.23C82.0818 19.01 82.1868 17 82.3968 15.2C82.6068 13.37 82.9968 11.75 83.5668 10.34C84.1368 8.92999 84.9618 7.72999 86.0418 6.74C87.1518 5.75 88.5918 4.955 90.3618 4.35499C91.4118 4.02499 92.4318 3.78499 93.4218 3.63499C94.4118 3.485 95.3868 3.36499 96.3468 3.27499C97.3368 3.185 98.3118 3.035 99.2718 2.82499C100.262 2.61499 101.267 2.25499 102.287 1.745ZM93.4668 17.855C92.1768 17.855 91.2018 18.065 90.5418 18.485C89.9118 18.905 89.4768 19.565 89.2368 20.465C89.0268 21.335 88.9218 22.535 88.9218 24.065C88.9218 25.805 89.0568 27.17 89.3268 28.16C89.5968 29.12 90.0468 29.795 90.6768 30.185C91.3068 30.545 92.1768 30.725 93.2868 30.725C94.3668 30.725 95.2218 30.545 95.8518 30.185C96.4818 29.795 96.9318 29.12 97.2018 28.16C97.4718 27.2 97.6068 25.835 97.6068 24.065C97.6068 22.415 97.4868 21.14 97.2468 20.24C97.0068 19.34 96.5868 18.725 95.9868 18.395C95.3868 18.035 94.5468 17.855 93.4668 17.855ZM119.689 12.185C123.469 12.185 126.169 12.83 127.789 14.12C129.409 15.38 130.234 17.27 130.264 19.79C130.294 21.83 129.784 23.36 128.734 24.38C127.684 25.37 125.869 25.865 123.289 25.865H110.824V22.13H121.444C122.434 22.13 123.079 21.92 123.379 21.5C123.679 21.05 123.814 20.435 123.784 19.655C123.784 18.605 123.484 17.885 122.884 17.495C122.314 17.075 121.324 16.865 119.914 16.865C118.684 16.865 117.724 17.03 117.034 17.36C116.374 17.69 115.909 18.32 115.639 19.25C115.369 20.18 115.234 21.53 115.234 23.3C115.234 25.16 115.399 26.6 115.729 27.62C116.059 28.61 116.614 29.3 117.394 29.69C118.204 30.08 119.299 30.275 120.679 30.275C121.729 30.275 123.004 30.245 124.504 30.185C126.034 30.095 127.564 29.96 129.094 29.78L129.679 33.875C128.839 34.295 127.864 34.625 126.754 34.865C125.644 35.105 124.504 35.27 123.334 35.36C122.164 35.48 121.024 35.54 119.914 35.54C117.124 35.54 114.859 35.135 113.119 34.325C111.409 33.485 110.164 32.21 109.384 30.5C108.634 28.79 108.259 26.6 108.259 23.93C108.259 21.02 108.649 18.71 109.429 17C110.209 15.29 111.439 14.06 113.119 13.31C114.799 12.56 116.989 12.185 119.689 12.185ZM141.264 12.77V35H134.694V12.77H141.264ZM150.174 21.005V25.55H140.994V21.005H150.174ZM156.339 12.77V35H149.769V12.77H156.339ZM168.51 12.77V35H161.94V12.77H168.51ZM177.42 21.005V25.55H168.24V21.005H177.42ZM183.585 12.77V35H177.015V12.77H183.585ZM199.716 12.185C202.506 12.185 204.741 12.575 206.421 13.355C208.101 14.105 209.301 15.335 210.021 17.045C210.771 18.755 211.146 21.05 211.146 23.93C211.146 26.75 210.771 29.015 210.021 30.725C209.301 32.435 208.101 33.665 206.421 34.415C204.741 35.165 202.506 35.54 199.716 35.54C196.926 35.54 194.691 35.165 193.011 34.415C191.331 33.665 190.116 32.435 189.366 30.725C188.616 29.015 188.241 26.75 188.241 23.93C188.241 21.05 188.616 18.755 189.366 17.045C190.116 15.335 191.331 14.105 193.011 13.355C194.691 12.575 196.926 12.185 199.716 12.185ZM199.716 17.045C198.576 17.045 197.676 17.24 197.016 17.63C196.356 18.02 195.891 18.71 195.621 19.7C195.351 20.69 195.216 22.1 195.216 23.93C195.216 25.73 195.351 27.125 195.621 28.115C195.891 29.105 196.356 29.795 197.016 30.185C197.676 30.545 198.576 30.725 199.716 30.725C200.856 30.725 201.756 30.545 202.416 30.185C203.076 29.795 203.526 29.105 203.766 28.115C204.036 27.125 204.171 25.73 204.171 23.93C204.171 22.1 204.036 20.69 203.766 19.7C203.526 18.71 203.076 18.02 202.416 17.63C201.756 17.24 200.856 17.045 199.716 17.045ZM226.078 12.185C226.858 12.185 227.728 12.23 228.688 12.32C229.678 12.38 230.653 12.515 231.613 12.725C232.603 12.905 233.503 13.175 234.313 13.535L233.593 17.72C232.363 17.69 231.208 17.66 230.128 17.63C229.048 17.6 228.073 17.585 227.203 17.585C225.853 17.585 224.773 17.765 223.963 18.125C223.183 18.485 222.628 19.13 222.298 20.06C221.968 20.96 221.803 22.22 221.803 23.84C221.803 25.49 221.968 26.78 222.298 27.71C222.628 28.64 223.183 29.285 223.963 29.645C224.773 30.005 225.853 30.185 227.203 30.185C227.683 30.185 228.298 30.17 229.048 30.14C229.798 30.11 230.608 30.08 231.478 30.05C232.348 29.99 233.203 29.9 234.043 29.78L234.673 34.01C233.473 34.55 232.108 34.94 230.578 35.18C229.048 35.42 227.533 35.54 226.033 35.54C223.273 35.54 221.068 35.165 219.418 34.415C217.798 33.635 216.628 32.39 215.908 30.68C215.188 28.97 214.828 26.69 214.828 23.84C214.828 20.99 215.188 18.71 215.908 17C216.628 15.29 217.813 14.06 219.463 13.31C221.113 12.56 223.318 12.185 226.078 12.185ZM250.817 12.77V35H244.157V12.77H250.817ZM258.197 12.77V17.9H236.732V12.77H258.197ZM283.653 12.77V35L277.668 35.045V23.39C277.668 22.79 277.683 22.205 277.713 21.635C277.773 21.065 277.848 20.45 277.938 19.79H277.758C277.578 20.33 277.323 20.915 276.993 21.545C276.663 22.145 276.348 22.67 276.048 23.12L267.633 35H261.828V12.77H267.768V24.74C267.768 25.28 267.753 25.82 267.723 26.36C267.693 26.87 267.633 27.425 267.543 28.025H267.678C267.918 27.455 268.173 26.93 268.443 26.45C268.743 25.94 269.043 25.46 269.343 25.01L277.893 12.77H283.653Z" stroke="white" stroke-opacity="0.23" stroke-width="2" mask="url(#path-1-outside-1_2183_108)"/>
</svg>
