<svg width="1332" height="180" viewBox="0 0 1332 180" fill="none" xmlns="http://www.w3.org/2000/svg">
<g opacity="0.1">
<path d="M71.8163 179.577V59.7878H24.3179V17.3867H173.996V59.7878H126.497V179.577H71.8163Z" fill="white"/>
<path d="M293.39 17.3867H348.071V179.577H293.39V17.3867ZM242.88 179.577H188.198V17.3867H242.88V179.577ZM297.097 119.798H239.172V74.8483H297.097V119.798Z" fill="white"/>
<path d="M356.809 179.577L427.709 17.3867H481.463L552.364 179.577H495.829L443.465 43.3371H464.781L412.417 179.577H356.809ZM398.978 151.309L412.88 111.92H487.488L501.39 151.309H398.978Z" fill="white"/>
<path d="M561.09 179.577V17.3867H615.771V179.577H561.09Z" fill="white"/>
<path d="M642.095 179.577V17.3867H696.776V137.176H769.993V179.577H642.095Z" fill="white"/>
<path d="M769.75 179.577L840.651 17.3867H894.405L965.305 179.577H908.77L856.406 43.3371H877.722L825.358 179.577H769.75ZM811.92 151.309L825.822 111.92H900.429L914.331 151.309H811.92Z" fill="white"/>
<path d="M974.032 179.577V17.3867H1018.98L1101.47 116.091H1080.61V17.3867H1133.9V179.577H1088.95L1006.47 80.8725H1027.32V179.577H974.032Z" fill="white"/>
<path d="M1160.25 179.577V17.3867H1240.19C1258.26 17.3867 1274.17 20.7078 1287.92 27.3498C1301.67 33.8374 1312.4 43.1054 1320.12 55.1538C1327.85 67.2022 1331.71 81.5676 1331.71 98.25C1331.71 115.087 1327.85 129.607 1320.12 141.81C1312.4 153.858 1301.67 163.203 1287.92 169.845C1274.17 176.333 1258.26 179.577 1240.19 179.577H1160.25ZM1214.93 136.944H1237.87C1245.59 136.944 1252.31 135.476 1258.03 132.542C1263.9 129.607 1268.46 125.282 1271.7 119.566C1274.94 113.697 1276.56 106.591 1276.56 98.25C1276.56 90.0632 1274.94 83.1122 1271.7 77.397C1268.46 71.6817 1263.9 67.3566 1258.03 64.4218C1252.31 61.4869 1245.59 60.0195 1237.87 60.0195H1214.93V136.944Z" fill="white"/>
</g>
<g opacity="0.5">
<mask id="path-2-outside-1_2211_139" maskUnits="userSpaceOnUse" x="0.926758" y="0.810303" width="1310" height="165" fill="black">
<rect fill="white" x="0.926758" y="0.810303" width="1310" height="165"/>
<path d="M49.4252 164V44.2114H1.92676V1.8103H151.605V44.2114H104.106V164H49.4252ZM270.999 1.8103H325.68V164H270.999V1.8103ZM220.488 164H165.807V1.8103H220.488V164ZM274.706 104.222H216.781V59.2719H274.706V104.222ZM334.418 164L405.318 1.8103H459.072L529.972 164H473.438L421.073 27.7607H442.39L390.026 164H334.418ZM376.587 135.733L390.489 96.3438H465.096L478.998 135.733H376.587ZM538.699 164V1.8103H593.38V164H538.699ZM619.704 164V1.8103H674.385V121.599H747.602V164H619.704ZM747.359 164L818.259 1.8103H872.014L942.914 164H886.379L834.015 27.7607H855.331L802.967 164H747.359ZM789.529 135.733L803.431 96.3438H878.038L891.94 135.733H789.529ZM951.641 164V1.8103H996.59L1079.08 100.514H1058.22V1.8103H1111.51V164H1066.56L984.079 65.296H1004.93V164H951.641ZM1137.86 164V1.8103H1217.8C1235.87 1.8103 1251.78 5.13134 1265.53 11.7734C1279.27 18.261 1290.01 27.529 1297.73 39.5774C1305.46 51.6258 1309.32 65.9912 1309.32 82.6735C1309.32 99.5104 1305.46 114.03 1297.73 126.233C1290.01 138.281 1279.27 147.627 1265.53 154.269C1251.78 160.756 1235.87 164 1217.8 164H1137.86ZM1192.54 121.367H1215.48C1223.2 121.367 1229.92 119.9 1235.64 116.965C1241.51 114.03 1246.06 109.705 1249.31 103.99C1252.55 98.1202 1254.17 91.0147 1254.17 82.6735C1254.17 74.4868 1252.55 67.5358 1249.31 61.8206C1246.06 56.1053 1241.51 51.7802 1235.64 48.8454C1229.92 45.9105 1223.2 44.4431 1215.48 44.4431H1192.54V121.367Z"/>
</mask>
<path d="M49.4252 164V44.2114H1.92676V1.8103H151.605V44.2114H104.106V164H49.4252ZM270.999 1.8103H325.68V164H270.999V1.8103ZM220.488 164H165.807V1.8103H220.488V164ZM274.706 104.222H216.781V59.2719H274.706V104.222ZM334.418 164L405.318 1.8103H459.072L529.972 164H473.438L421.073 27.7607H442.39L390.026 164H334.418ZM376.587 135.733L390.489 96.3438H465.096L478.998 135.733H376.587ZM538.699 164V1.8103H593.38V164H538.699ZM619.704 164V1.8103H674.385V121.599H747.602V164H619.704ZM747.359 164L818.259 1.8103H872.014L942.914 164H886.379L834.015 27.7607H855.331L802.967 164H747.359ZM789.529 135.733L803.431 96.3438H878.038L891.94 135.733H789.529ZM951.641 164V1.8103H996.59L1079.08 100.514H1058.22V1.8103H1111.51V164H1066.56L984.079 65.296H1004.93V164H951.641ZM1137.86 164V1.8103H1217.8C1235.87 1.8103 1251.78 5.13134 1265.53 11.7734C1279.27 18.261 1290.01 27.529 1297.73 39.5774C1305.46 51.6258 1309.32 65.9912 1309.32 82.6735C1309.32 99.5104 1305.46 114.03 1297.73 126.233C1290.01 138.281 1279.27 147.627 1265.53 154.269C1251.78 160.756 1235.87 164 1217.8 164H1137.86ZM1192.54 121.367H1215.48C1223.2 121.367 1229.92 119.9 1235.64 116.965C1241.51 114.03 1246.06 109.705 1249.31 103.99C1252.55 98.1202 1254.17 91.0147 1254.17 82.6735C1254.17 74.4868 1252.55 67.5358 1249.31 61.8206C1246.06 56.1053 1241.51 51.7802 1235.64 48.8454C1229.92 45.9105 1223.2 44.4431 1215.48 44.4431H1192.54V121.367Z" stroke="white" stroke-width="1.94706" mask="url(#path-2-outside-1_2211_139)"/>
</g>
</svg>
