<svg width="566" height="503" viewBox="0 0 566 503" fill="none" xmlns="http://www.w3.org/2000/svg">
<g clip-path="url(#clip0_637_721)">
<path d="M238.84 418.379H12.8826L42.175 346.406L57.6493 337.928L82.0112 281.636L101.708 270.074L120.444 236.211H138.927L180.015 305.543L200.926 316.334L238.84 418.379Z" fill="#ECECEC"/>
<path d="M12.8826 418.379H110.343V362.214L135.349 322.891L123.44 281.636L138.927 236.211H120.444L101.708 270.074L82.0112 281.636L57.6493 337.928L42.175 346.406L12.8826 418.379Z" fill="#DCDCDC"/>
<path d="M138.927 418.379L148.371 388.812L163.643 373.775L170.47 356.047L175.224 359.901V376.858L163.643 390.353V418.493L138.927 418.379Z" fill="#DCDCDC"/>
<path d="M157.082 327.301L159.61 315.436L166.425 308.626L169.61 312.669L165.363 317.964L167.272 329.247L157.082 327.301Z" fill="#DCDCDC"/>
<path d="M222.582 418.329H553.117L490.752 288.143L460.752 275.293L428.906 213.1L407.907 190.533L389.398 149.353L367.729 152.866L330.675 239.142L309.979 254.57L276.375 343.424L243.278 375.569L222.582 418.329Z" fill="#ECECEC"/>
<path d="M389.398 149.353L391.94 214.225L367.54 248.291L378.981 274.371L356.326 331.863L376.073 379.423L364.379 418.329H222.582L243.278 375.569L276.375 343.424L309.979 254.57L330.675 239.142L367.729 152.866L389.398 149.353Z" fill="#DCDCDC"/>
<path d="M383.305 315.146L400.321 285.578L398.994 273.044L405.328 264.047L413.002 289.597L389.98 315.146H383.305Z" fill="#DCDCDC"/>
<path d="M369.954 97.7999L371.155 100.239L373.861 100.63L371.914 102.538L372.369 105.23L369.954 103.953L367.54 105.23L367.995 102.538L366.048 100.63L368.741 100.239L369.954 97.7999Z" fill="#DCDCDC"/>
<path d="M143.011 220.088L144.224 222.539L146.917 222.931L144.97 224.839L145.425 227.518L143.011 226.254L140.596 227.518L141.064 224.839L139.104 222.931L141.81 222.539L143.011 220.088Z" fill="#DCDCDC"/>
<path d="M458.312 8.16263L459.526 10.6013L462.231 10.993L460.272 12.901L460.727 15.5798L458.312 14.3162L455.897 15.5798L456.365 12.901L454.406 10.993L457.111 10.6013L458.312 8.16263Z" fill="#DCDCDC"/>
<path d="M187.145 11.8649L188.359 14.3162L191.052 14.7079L189.105 16.6159L189.56 19.2946L187.145 18.0311L184.731 19.2946L185.198 16.6159L183.239 14.7079L185.944 14.3162L187.145 11.8649Z" fill="#DCDCDC"/>
<path d="M530.98 212.671L532.194 215.109L534.9 215.501L532.94 217.409L533.408 220.088L530.98 218.824L528.578 220.088L529.034 217.409L527.074 215.501L529.779 215.109L530.98 212.671Z" fill="#DCDCDC"/>
<path d="M264.934 93.5923L266.135 96.0436L268.841 96.4353L266.881 98.3306L267.349 101.022L264.934 99.7585L262.519 101.022L262.975 98.3306L261.028 96.4353L263.72 96.0436L264.934 93.5923Z" fill="#DCDCDC"/>
<path d="M24.3872 43.2266L25.5882 45.6779L28.2937 46.0696L26.3341 47.9776L26.8019 50.6563L24.3872 49.3928L21.9725 50.6563L22.4276 47.9776L20.468 46.0696L23.1735 45.6779L24.3872 43.2266Z" fill="#DCDCDC"/>
<path d="M76.4866 189.244L77.6876 191.683L80.3931 192.075L78.4335 193.983L78.9013 196.674L76.4866 195.398L74.0719 196.674L74.527 193.983L72.5801 192.075L75.2729 191.683L76.4866 189.244Z" fill="#DCDCDC"/>
<path d="M24.3871 230.866L25.133 232.382L26.8018 232.622L25.5881 233.797L25.8789 235.453L24.3871 234.669L22.8827 235.453L23.1734 233.797L21.9724 232.622L23.6412 232.382L24.3871 230.866Z" fill="#DCDCDC"/>
<path d="M194.162 77.4565L194.908 78.9728L196.577 79.2129L195.363 80.388L195.654 82.0433L194.162 81.2599L192.67 82.0433L192.948 80.388L191.735 79.2129L193.416 78.9728L194.162 77.4565Z" fill="#DCDCDC"/>
<path d="M319.587 211.786L320.333 213.302L322.002 213.543L320.801 214.718L321.079 216.386L319.587 215.589L318.095 216.386L318.386 214.718L317.172 213.543L318.841 213.302L319.587 211.786Z" fill="#DCDCDC"/>
<path d="M37.4972 56.3297L38.2431 57.846L39.9119 58.0861L38.6982 59.2612L38.989 60.9291L37.4972 60.1457L36.0054 60.9291L36.2835 59.2612L35.0825 58.0861L36.7513 57.846L37.4972 56.3297Z" fill="#DCDCDC"/>
<path d="M462.231 190.659L462.965 192.176L464.633 192.416L463.432 193.591L463.723 195.259L462.231 194.463L460.727 195.259L461.018 193.591L459.804 192.416L461.473 192.176L462.231 190.659Z" fill="#DCDCDC"/>
<path d="M86.5624 261.747L87.3083 263.264L88.9771 263.504L87.7761 264.679L88.0542 266.334L86.5624 265.551L85.0706 266.334L85.3614 264.679L84.1477 263.504L85.8165 263.264L86.5624 261.747Z" fill="#DCDCDC"/>
<path d="M57.5861 181.094L58.332 182.598L60.0008 182.851L58.7998 184.026L59.0779 185.681L57.5861 184.897L56.0943 185.681L56.3851 184.026L55.1714 182.851L56.8402 182.598L57.5861 181.094Z" fill="#DCDCDC"/>
<path d="M302.57 65.7433L303.316 67.2596L304.985 67.4996L303.771 68.6748L304.062 70.3427L302.57 69.5593L301.079 70.3427L301.357 68.6748L300.156 67.4996L301.825 67.2596L302.57 65.7433Z" fill="#DCDCDC"/>
<path d="M468.135 261.747L468.881 263.264L470.55 263.504L469.349 264.679L469.627 266.334L468.135 265.551L466.643 266.334L466.921 264.679L465.72 263.504L467.389 263.264L468.135 261.747Z" fill="#DCDCDC"/>
<path d="M543.117 117.512L543.863 119.028L545.532 119.268L544.318 120.443L544.609 122.111L543.117 121.328L541.626 122.111L541.904 120.443L540.703 119.268L542.371 119.028L543.117 117.512Z" fill="#DCDCDC"/>
<path d="M477.213 115.225L477.958 116.728L479.627 116.968L478.414 118.143L478.704 119.811L477.213 119.028L475.721 119.811L475.999 118.143L474.798 116.968L476.467 116.728L477.213 115.225Z" fill="#DCDCDC"/>
<path d="M428.83 48.9884C426.08 53.7897 422.176 57.8302 417.471 60.7444C412.766 63.6585 407.408 65.3545 401.882 65.6789C396.357 66.0033 390.837 64.9458 385.823 62.6022C380.809 60.2586 376.459 56.7027 373.165 52.2561C369.872 47.8096 367.74 42.6127 366.961 37.1353C366.182 31.658 366.782 26.0731 368.706 20.8858C370.63 15.6984 373.817 11.0721 377.98 7.42546C382.142 3.77878 387.149 1.22669 392.546 0C388.338 1.93456 384.615 4.78262 381.647 8.33684C378.68 11.8911 376.542 16.062 375.391 20.546C374.24 25.0299 374.103 29.7141 374.992 34.2574C375.88 38.8007 377.771 43.0888 380.527 46.8095C383.283 50.5303 386.834 53.59 390.922 55.7659C395.01 57.9418 399.533 59.1792 404.16 59.3879C408.787 59.5966 413.402 58.7714 417.67 56.9724C421.937 55.1734 425.75 52.4459 428.83 48.9884Z" fill="#DCDCDC"/>
<path d="M12.6423 418.379C185.843 417.596 380.157 417.596 553.358 418.379C380.157 419.15 185.856 419.15 12.6423 418.379Z" fill="#1A2E35"/>
<path d="M560.336 429.701H5.66379C4.16269 429.697 2.72402 429.1 1.66258 428.039C0.601131 426.978 0.00333951 425.54 0 424.04C0 422.539 0.596719 421.099 1.65889 420.037C2.72105 418.975 4.16166 418.379 5.66379 418.379H560.336C561.08 418.377 561.818 418.523 562.506 418.807C563.194 419.09 563.819 419.507 564.345 420.033C564.871 420.559 565.288 421.184 565.572 421.872C565.856 422.559 566.002 423.296 566 424.04C566 424.783 565.853 425.519 565.569 426.206C565.284 426.893 564.867 427.517 564.341 428.043C563.815 428.568 563.191 428.985 562.504 429.27C561.816 429.554 561.08 429.701 560.336 429.701Z" fill="#375A64"/>
<path d="M447.541 440.896H97.8901C94.7621 440.896 92.2263 443.43 92.2263 446.557C92.2263 449.683 94.7621 452.217 97.8901 452.217H447.541C450.669 452.217 453.205 449.683 453.205 446.557C453.205 443.43 450.669 440.896 447.541 440.896Z" fill="#375A64"/>
<path d="M416.137 474.608H161.405C160.662 474.608 159.925 474.461 159.238 474.177C158.551 473.892 157.927 473.475 157.401 472.95C156.875 472.424 156.457 471.8 156.173 471.113C155.888 470.426 155.742 469.69 155.742 468.947C155.745 467.447 156.343 466.009 157.404 464.948C158.466 463.887 159.904 463.29 161.405 463.286H416.137C417.639 463.286 419.08 463.883 420.142 464.944C421.204 466.006 421.801 467.446 421.801 468.947C421.803 469.691 421.657 470.428 421.373 471.115C421.089 471.803 420.672 472.427 420.146 472.953C419.619 473.479 418.994 473.896 418.306 474.18C417.619 474.464 416.881 474.609 416.137 474.608Z" fill="#375A64"/>
<path d="M74.2868 440.896H47.6745C44.5465 440.896 42.0107 443.43 42.0107 446.557C42.0107 449.683 44.5465 452.217 47.6745 452.217H74.2868C77.4148 452.217 79.9506 449.683 79.9506 446.557C79.9506 443.43 77.4148 440.896 74.2868 440.896Z" fill="#375A64"/>
<path d="M460.183 474.608H446.845C446.102 474.608 445.365 474.461 444.678 474.177C443.991 473.892 443.366 473.475 442.841 472.95C442.315 472.424 441.897 471.8 441.613 471.113C441.328 470.426 441.182 469.69 441.182 468.947C441.185 467.447 441.783 466.009 442.844 464.948C443.906 463.887 445.344 463.29 446.845 463.286H460.183C461.684 463.29 463.123 463.887 464.184 464.948C465.246 466.009 465.844 467.447 465.847 468.947C465.847 469.69 465.7 470.426 465.416 471.113C465.131 471.8 464.714 472.424 464.188 472.95C463.662 473.475 463.038 473.892 462.351 474.177C461.663 474.461 460.927 474.608 460.183 474.608Z" fill="#375A64"/>
<path d="M262.115 440.984H115.602C117.111 440.984 118.558 440.385 119.625 439.319C120.692 438.252 121.291 436.806 121.291 435.298C121.291 433.79 120.692 432.344 119.625 431.278C118.558 430.211 117.111 429.612 115.602 429.612H262.115C260.606 429.612 259.159 430.211 258.092 431.278C257.025 432.344 256.426 433.79 256.426 435.298C256.426 436.806 257.025 438.252 258.092 439.319C259.159 440.385 260.606 440.984 262.115 440.984Z" fill="#375A64"/>
<path d="M414.266 440.984H318.184C319.693 440.984 321.14 440.385 322.207 439.319C323.274 438.252 323.873 436.806 323.873 435.298C323.873 433.79 323.274 432.344 322.207 431.278C321.14 430.211 319.693 429.612 318.184 429.612H414.266C412.757 429.612 411.31 430.211 410.243 431.278C409.176 432.344 408.577 433.79 408.577 435.298C408.577 436.806 409.176 438.252 410.243 439.319C411.31 440.385 412.757 440.984 414.266 440.984Z" fill="#375A64"/>
<path d="M341.585 463.413H194.162C195.671 463.413 197.118 462.813 198.185 461.747C199.252 460.681 199.851 459.235 199.851 457.726C199.851 456.218 199.252 454.772 198.185 453.706C197.118 452.64 195.671 452.04 194.162 452.04H341.585C340.076 452.04 338.629 452.64 337.562 453.706C336.495 454.772 335.896 456.218 335.896 457.726C335.896 459.235 336.495 460.681 337.562 461.747C338.629 462.813 340.076 463.413 341.585 463.413Z" fill="#375A64"/>
<path d="M50.5442 418.278H403.28L338.892 259.625L307.918 243.957L275.048 168.168L253.366 140.647L234.251 90.4713L211.874 94.7421L173.618 199.896L152.265 218.698L106.082 326.998L71.9098 366.156L50.5442 418.278Z" fill="#375A64"/>
<path d="M234.251 90.4713L236.868 169.533L211.684 211.053L223.492 242.832L200.104 312.897L220.496 370.856L208.422 418.278H50.5442L71.9098 366.156L106.082 326.998L152.265 218.698L173.618 199.896L211.874 94.7421L234.251 90.4713Z" fill="#2B454E"/>
<path d="M227.955 292.528L245.528 256.491L244.15 241.215L250.699 230.247L258.625 261.381L234.845 292.528H227.955Z" fill="#2B454E"/>
<path d="M515.456 418.303H254.276L288.777 333.606L313.152 314.046L338.298 241.126L358.639 226.14L377.97 182.269H397.06L439.487 272.096L461.068 286.084L515.456 418.303Z" fill="#2B454E"/>
<path d="M254.276 418.303H367.552V345.522L393.368 294.575L381.067 241.126L397.06 182.269H377.97L358.639 226.14L338.298 241.126L313.152 314.046L288.777 333.606L254.276 418.303Z" fill="#1A2E35"/>
<path d="M397.06 418.303L406.807 379.992L422.585 360.508L429.614 337.524L434.532 342.527V364.501L422.585 381.988V418.442L397.06 418.303Z" fill="#1A2E35"/>
<path d="M415.796 300.286L418.413 284.909L425.442 276.089L428.741 281.333L424.342 288.181L426.327 302.813L415.796 300.286Z" fill="#1A2E35"/>
<path d="M66.4231 417.987C64.9693 419.428 48.079 420.072 41.9348 420.072C35.7906 420.072 18.9636 419.428 17.4465 417.987C15.9294 416.547 36.4101 304.266 41.9348 304.266C47.4596 304.266 67.8644 416.534 66.4231 417.987Z" fill="#1A2E35"/>
<path d="M66.7519 389.393C62.5799 390.985 47.1182 397.277 43.7807 399.11C43.7807 398.402 43.7807 397.694 43.7807 397C47.5734 394.801 51.2649 392.628 54.9945 390.454C59.125 388.286 63.1344 385.894 67.0047 383.29C67.1817 383.151 67.0806 382.784 66.8277 382.885C62.7528 384.789 58.8119 386.968 55.0324 389.405C51.2397 391.629 47.4469 393.929 43.6542 396.241C43.6542 390.859 43.6542 385.48 43.6542 380.106C49.7504 377.582 55.6424 374.591 61.2777 371.16C61.4674 371.046 61.3409 370.692 61.1134 370.781C55.0815 373.206 49.241 376.083 43.6416 379.385C43.6416 376.593 43.6416 373.788 43.6416 370.995C43.4772 356.591 43.4519 342.173 43.0853 327.781C46.7516 325.924 50.5317 324.294 54.198 322.437C54.4382 322.323 54.2612 321.906 54.0083 321.994C50.2915 323.447 46.7137 325.166 43.06 326.771C42.8578 319.341 42.5796 311.911 42.1245 304.494C42.1245 304.444 42.1045 304.395 42.069 304.36C42.0334 304.324 41.9852 304.304 41.9349 304.304C41.8846 304.304 41.8363 304.324 41.8008 304.36C41.7652 304.395 41.7452 304.444 41.7452 304.494C41.2269 318.292 41.2648 332.103 41.4418 345.901C37.6491 342.881 33.5909 340.202 29.735 337.258C29.5832 337.144 29.4315 337.397 29.5832 337.511C33.6288 340.581 37.4089 343.993 41.4545 347.051V349.388C37.333 347.506 33.1484 345.762 28.9891 343.98C28.6603 343.841 28.3696 344.309 28.7109 344.46C32.9461 346.495 37.1687 348.567 41.4671 350.488C41.5682 357.324 41.682 364.159 41.7705 370.995C41.9222 382.936 42.1877 394.877 42.4406 406.805C34.6613 402.871 26.8314 399.051 18.951 395.344C18.6476 395.205 18.3821 395.622 18.6855 395.799C26.3896 400.204 34.3281 404.186 42.4658 407.727C42.6681 417.646 42.8704 408.624 43.0095 418.543C43.0095 418.667 43.0587 418.786 43.1465 418.874C43.2342 418.962 43.3532 419.011 43.4772 419.011C43.6013 419.011 43.7203 418.962 43.808 418.874C43.8957 418.786 43.945 418.667 43.945 418.543C43.8059 405.908 43.7806 412.225 43.7427 399.527C47.8515 398.516 63.3258 391.945 67.0047 390.075C67.4219 389.886 67.1564 389.178 66.7519 389.393Z" fill="#2B454E"/>
<path d="M192.822 417.899C191.558 419.162 177.082 419.693 171.81 419.693C166.538 419.693 152.038 419.137 150.799 417.899C149.56 416.661 167.107 320.352 171.81 320.352C176.513 320.352 194.061 416.648 192.822 417.899Z" fill="#1A2E35"/>
<path d="M193.113 393.348C189.535 394.725 176.26 400.121 173.403 401.7C173.403 401.093 173.403 400.436 173.403 399.88C176.602 397.998 179.813 396.09 183.024 394.27C186.585 392.409 190.041 390.354 193.378 388.117C193.542 388.003 193.454 387.687 193.239 387.776C189.744 389.408 186.364 391.278 183.125 393.373C179.863 395.281 176.64 397.252 173.428 399.236C173.428 394.624 173.428 389.999 173.365 385.337C178.614 383.173 183.686 380.604 188.536 377.654C188.7 377.553 188.599 377.25 188.397 377.338C183.223 379.414 178.215 381.881 173.416 384.718C173.416 382.317 173.416 379.916 173.416 377.515C173.277 365.158 173.251 352.787 172.935 340.43C176.083 338.85 179.332 337.448 182.468 335.856C182.683 335.755 182.531 335.388 182.316 335.477C179.117 336.74 175.995 338.193 172.923 339.57C172.746 333.253 172.505 326.821 172.114 320.453C172.114 320.409 172.096 320.367 172.065 320.337C172.035 320.306 171.993 320.288 171.949 320.288C171.906 320.288 171.864 320.306 171.833 320.337C171.802 320.367 171.785 320.409 171.785 320.453C171.342 332.292 171.38 344.145 171.532 355.984C168.27 353.457 164.794 351.094 161.481 348.567C161.355 348.466 161.228 348.681 161.355 348.782C164.819 351.423 168.068 354.342 171.545 356.97C171.545 357.639 171.545 358.309 171.545 358.979C168.005 357.362 164.427 355.858 160.849 354.329C160.571 354.215 160.318 354.62 160.609 354.746C164.25 356.49 167.866 358.271 171.557 359.914C171.633 365.789 171.734 371.652 171.81 377.515C171.949 387.763 172.177 398.01 172.392 408.258C165.729 404.884 158.991 401.599 152.24 398.415C151.974 398.288 151.747 398.655 152.012 398.806C158.619 402.584 165.427 406.001 172.404 409.041C172.594 417.558 172.771 411.126 172.872 419.643C172.872 419.75 172.915 419.853 172.991 419.929C173.066 420.004 173.169 420.047 173.277 420.047C173.384 420.047 173.487 420.004 173.563 419.929C173.639 419.853 173.681 419.75 173.681 419.643C173.567 408.789 173.542 412.87 173.517 401.953C177.031 401.093 190.319 395.407 193.479 393.841C193.694 393.79 193.429 393.221 193.113 393.348Z" fill="#2B454E"/>
<path d="M55.8921 418.404C56.9414 419.453 69.1413 419.921 73.5914 419.921C78.0415 419.921 90.2288 419.453 91.2908 418.404C92.3527 417.356 77.5611 336.273 73.5914 336.273C69.6217 336.273 54.8427 417.356 55.8921 418.404Z" fill="#1A2E35"/>
<path d="M55.6266 397.732C58.6481 398.882 69.824 403.431 72.2387 404.758V403.229L64.1349 398.503C61.1352 396.936 58.2231 395.206 55.4117 393.323C55.2852 393.234 55.4117 392.956 55.5381 393.032C58.4835 394.413 61.3342 395.988 64.0717 397.745C66.8151 399.362 69.5332 401.018 72.2387 402.686C72.2387 398.811 72.2387 394.923 72.2387 391.023C67.8363 389.199 63.5802 387.04 59.5078 384.566C59.3687 384.478 59.5078 384.225 59.6216 384.288C63.9861 386.04 68.2122 388.118 72.264 390.505C72.264 388.483 72.264 386.461 72.264 384.44C72.3778 374.041 72.3904 363.616 72.6559 353.217C70.0136 351.878 67.2829 350.69 64.6406 349.351C64.4636 349.262 64.6406 348.959 64.767 349.035C67.4599 350.083 70.0389 351.334 72.6812 352.484C72.816 347.118 73.0394 341.752 73.3512 336.386C73.3512 336.349 73.3659 336.314 73.392 336.288C73.418 336.262 73.4534 336.247 73.4903 336.247C73.5272 336.247 73.5625 336.262 73.5886 336.288C73.6147 336.314 73.6294 336.349 73.6294 336.386C74.0086 346.356 73.9707 356.338 73.8443 366.308C76.6003 364.122 79.5207 362.188 82.3147 360.066C82.4158 359.977 82.5296 360.167 82.4158 360.242C79.4954 362.466 76.7647 364.93 73.8443 367.141C73.8443 367.71 73.8443 368.266 73.8443 368.835C76.8152 367.47 79.8368 366.206 82.8457 364.918C83.0859 364.817 83.2881 365.158 83.0479 365.271C79.9885 366.737 76.929 368.241 73.8316 369.618C73.7558 374.563 73.6841 379.503 73.6167 384.44C73.5029 393.07 73.3133 401.7 73.1237 410.33C78.7453 407.491 84.4049 404.728 90.1024 402.041C90.3173 401.94 90.5069 402.243 90.292 402.37C84.7252 405.551 78.9898 408.427 73.111 410.987C72.9593 418.164 72.8076 412.579 72.7191 419.756C72.7039 419.834 72.6622 419.904 72.6011 419.954C72.54 420.005 72.4633 420.032 72.3841 420.032C72.3049 420.032 72.2282 420.005 72.1671 419.954C72.1059 419.904 72.0642 419.834 72.0491 419.756C72.1376 410.608 72.1628 414.209 72.1881 405.061C69.2172 404.341 58.0286 399.552 55.3737 398.238C55.1588 398.099 55.3485 397.631 55.6266 397.732Z" fill="#375A64"/>
<path d="M503.951 417.735C502.611 418.998 487.023 419.655 481.359 419.655C475.695 419.655 460.095 419.061 458.767 417.735C457.44 416.408 476.302 312.859 481.359 312.859C486.416 312.859 505.291 416.395 503.951 417.735Z" fill="#1A2E35"/>
<path d="M504.267 391.339C500.411 392.804 486.151 398.617 483.066 400.31C483.066 399.653 483.066 399.046 483.066 398.364L493.42 392.324C497.249 390.323 500.967 388.117 504.558 385.716C504.722 385.59 504.634 385.236 504.394 385.337C500.634 387.095 496.997 389.104 493.509 391.351C489.994 393.411 486.53 395.521 483.066 397.669C483.066 392.703 483.066 387.738 483.066 382.772C488.692 380.445 494.128 377.682 499.324 374.508C499.501 374.407 499.387 374.078 499.185 374.167C493.577 376.397 488.146 379.049 482.94 382.102C482.94 379.575 482.94 376.947 482.876 374.369C482.737 361.076 482.712 347.834 482.371 334.478C485.759 332.773 489.248 331.269 492.624 329.563C492.851 329.449 492.687 329.058 492.447 329.146C489.021 330.485 485.721 332.078 482.333 333.556C482.156 326.695 481.89 319.846 481.473 312.998C481.473 312.951 481.454 312.906 481.421 312.873C481.388 312.839 481.343 312.821 481.296 312.821C481.249 312.821 481.204 312.839 481.171 312.873C481.138 312.906 481.119 312.951 481.119 312.998C480.639 325.722 480.689 338.471 480.841 351.208C477.339 348.415 473.597 345.939 470.032 343.235C469.893 343.121 469.766 343.361 469.905 343.462C473.635 346.293 477.124 349.439 480.854 352.307C480.854 353.027 480.854 353.748 480.854 354.468C477.061 352.724 473.205 351.119 469.362 349.414C469.058 349.287 468.793 349.717 469.096 349.869C473.015 351.739 476.909 353.659 480.879 355.428C480.963 361.738 481.056 368.055 481.157 374.382C481.296 385.4 481.536 396.418 481.776 407.424C474.596 403.793 467.368 400.268 460.095 396.848C459.817 396.722 459.576 397.113 459.855 397.265C466.964 401.326 474.286 405.004 481.789 408.283C481.991 417.431 482.181 410.52 482.295 419.655C482.295 419.769 482.34 419.878 482.421 419.959C482.501 420.04 482.611 420.085 482.725 420.085C482.839 420.085 482.948 420.04 483.029 419.959C483.109 419.878 483.154 419.769 483.154 419.655C483.028 407.98 483.015 412.377 482.977 400.702C486.77 399.767 501.056 393.651 504.47 391.971C504.887 391.806 504.634 391.2 504.267 391.339Z" fill="#375A64"/>
<path d="M439.475 417.735C438.135 418.998 422.547 419.655 416.87 419.655C411.194 419.655 395.618 419.061 394.278 417.735C392.938 416.408 411.813 312.859 416.87 312.859C421.927 312.859 440.802 416.395 439.475 417.735Z" fill="#1A2E35"/>
<path d="M439.778 391.339C435.986 392.804 421.662 398.617 418.577 400.31V398.364C422.016 396.342 425.463 394.329 428.918 392.324C432.747 390.323 436.465 388.117 440.056 385.716C440.221 385.59 440.132 385.236 439.905 385.337C436.141 387.094 432.5 389.104 429.007 391.351C425.492 393.411 422.028 395.521 418.577 397.669C418.577 392.703 418.577 387.738 418.577 382.772C424.201 380.439 429.637 377.677 434.835 374.508C435.012 374.407 434.835 374.078 434.683 374.167C429.085 376.4 423.663 379.053 418.463 382.102C418.463 379.524 418.463 376.947 418.463 374.369C418.324 361.076 418.286 347.834 417.957 334.478C421.333 332.773 424.822 331.269 428.198 329.563C428.425 329.449 428.274 329.058 428.033 329.146C424.595 330.485 421.295 332.078 417.92 333.556C417.73 326.695 417.464 319.846 417.047 312.998C417.047 312.951 417.029 312.906 416.995 312.873C416.962 312.839 416.917 312.821 416.87 312.821C416.823 312.821 416.778 312.839 416.745 312.873C416.712 312.906 416.693 312.951 416.693 312.998C416.225 325.722 416.263 338.471 416.428 351.208C412.913 348.415 409.184 345.939 405.618 343.235C405.479 343.121 405.34 343.361 405.479 343.462C409.209 346.293 412.698 349.439 416.44 352.307C416.44 353.027 416.44 353.748 416.44 354.468C412.648 352.724 408.779 351.119 404.936 349.414C404.645 349.287 404.367 349.717 404.683 349.869C408.589 351.739 412.496 353.659 416.453 355.428C416.542 361.746 416.655 368.064 416.731 374.382C416.87 385.4 417.123 396.418 417.351 407.424C410.187 403.793 402.959 400.268 395.669 396.848C395.391 396.722 395.151 397.113 395.429 397.265C402.541 401.329 409.868 405.007 417.376 408.283C417.566 417.431 417.755 410.52 417.869 419.655C417.887 419.758 417.94 419.852 418.02 419.919C418.1 419.986 418.201 420.023 418.305 420.023C418.41 420.023 418.511 419.986 418.59 419.919C418.67 419.852 418.724 419.758 418.741 419.655C418.615 407.98 418.59 412.377 418.552 400.702C422.344 399.767 436.63 393.651 440.044 391.971C440.398 391.806 440.158 391.2 439.778 391.339Z" fill="#375A64"/>
<path d="M431.106 418.733C432.041 419.668 442.939 420.072 446.896 420.072C450.853 420.072 461.763 419.668 462.699 418.733C463.635 417.798 450.436 345.446 446.896 345.446C443.356 345.446 430.221 417.798 431.106 418.733Z" fill="#1A2E35"/>
<path d="M430.941 400.285C433.634 401.308 443.584 405.339 445.758 406.603V405.238C443.356 403.823 440.942 402.433 438.527 401.03C436.112 399.628 433.166 398.175 430.752 396.406C430.625 396.317 430.752 396.077 430.866 396.14C433.483 397.377 436.017 398.782 438.451 400.348C440.904 401.776 443.318 403.267 445.746 404.758C445.746 401.283 445.746 397.821 445.746 394.346C441.81 392.717 438.006 390.786 434.367 388.572C434.241 388.496 434.368 388.268 434.469 388.331C438.357 389.896 442.122 391.751 445.733 393.879V388.47C445.834 379.183 445.859 369.883 446.087 360.596C443.723 359.408 441.296 358.36 438.931 357.159C438.78 357.084 438.931 356.806 439.045 356.869C441.447 357.804 443.761 358.916 446.112 359.952C446.239 355.163 446.428 350.374 446.719 345.585C446.713 345.566 446.711 345.546 446.714 345.526C446.717 345.506 446.725 345.488 446.737 345.472C446.749 345.455 446.764 345.442 446.782 345.433C446.8 345.424 446.819 345.419 446.839 345.419C446.859 345.419 446.879 345.424 446.897 345.433C446.915 345.442 446.93 345.455 446.942 345.472C446.953 345.488 446.961 345.506 446.964 345.526C446.967 345.546 446.966 345.566 446.959 345.585C447.288 354.43 447.263 363.389 447.149 372.284C449.602 370.338 452.206 368.607 454.734 366.712C454.836 366.636 454.924 366.8 454.823 366.876C452.219 368.86 449.766 371.059 447.174 373.03C447.174 373.535 447.174 374.041 447.174 374.533C449.829 373.27 452.522 372.196 455.215 371.046C455.417 370.957 455.607 371.261 455.392 371.362C452.661 372.625 449.93 374.003 447.162 375.241C447.098 379.651 447.023 384.086 446.972 388.47C446.871 396.178 446.706 403.873 446.542 411.568C451.599 409.041 456.656 406.514 461.713 404.177C461.903 404.088 462.08 404.353 461.877 404.467C456.913 407.308 451.798 409.877 446.555 412.162C446.416 418.569 446.277 413.426 446.201 419.832C446.201 419.913 446.169 419.99 446.112 420.047C446.055 420.103 445.978 420.135 445.897 420.135C445.817 420.135 445.74 420.103 445.683 420.047C445.626 419.99 445.594 419.913 445.594 419.832C445.682 411.682 445.695 415.043 445.72 406.881C440.612 405.116 435.603 403.079 430.714 400.778C430.512 400.613 430.676 400.184 430.941 400.285Z" fill="#2B454E"/>
<path d="M128.156 418.581C129.091 419.516 139.989 419.933 143.959 419.933C147.929 419.933 158.814 419.516 159.749 418.581C160.685 417.646 147.486 345.294 143.959 345.294C140.432 345.294 127.22 417.646 128.156 418.581Z" fill="#1A2E35"/>
<path d="M127.941 400.133C130.634 401.169 140.584 405.187 142.758 406.451C142.758 405.996 142.758 405.541 142.758 405.086L135.527 400.866C132.848 399.467 130.249 397.923 127.739 396.241C127.625 396.153 127.739 395.913 127.853 395.976C130.471 397.21 133.005 398.616 135.438 400.184C137.891 401.624 140.318 403.103 142.733 404.594C142.733 401.131 142.733 397.657 142.733 394.194C138.799 392.56 134.996 390.63 131.355 388.42C131.241 388.344 131.355 388.117 131.456 388.18C135.352 389.737 139.122 391.592 142.733 393.727C142.733 391.92 142.733 390.113 142.733 388.319C142.821 379.032 142.846 369.732 143.087 360.445C140.723 359.181 138.283 358.195 135.918 356.995C135.882 356.978 135.853 356.948 135.839 356.91C135.824 356.872 135.826 356.83 135.843 356.793C135.859 356.756 135.89 356.727 135.928 356.713C135.966 356.699 136.008 356.7 136.045 356.717C138.434 357.652 140.748 358.764 143.099 359.788C143.226 354.999 143.415 350.21 143.706 345.421C143.714 345.396 143.731 345.374 143.752 345.358C143.774 345.342 143.8 345.334 143.826 345.334C143.853 345.334 143.879 345.342 143.9 345.358C143.922 345.374 143.938 345.396 143.946 345.421C144.288 354.266 144.25 363.224 144.149 372.133C146.589 370.174 149.206 368.456 151.734 366.548C151.835 366.484 151.924 366.649 151.835 366.712C149.218 368.696 146.778 370.894 144.174 372.865C144.174 373.371 144.174 373.876 144.174 374.382C146.829 373.118 149.534 372.031 152.215 370.882C152.417 370.793 152.606 371.096 152.392 371.198C149.661 372.461 146.943 373.851 144.174 375.089C144.174 379.499 144.035 383.934 143.972 388.319C143.871 396.014 143.706 403.709 143.542 411.417C148.548 408.89 153.605 406.422 158.713 404.012C158.902 403.924 159.079 404.202 158.89 404.316C153.928 407.118 148.822 409.657 143.592 411.922C143.453 418.316 143.314 413.337 143.238 419.731C143.238 419.811 143.206 419.889 143.15 419.946C143.093 420.002 143.015 420.034 142.935 420.034C142.855 420.034 142.777 420.002 142.72 419.946C142.664 419.889 142.632 419.811 142.632 419.731C142.72 411.581 142.733 414.791 142.758 406.628C137.651 404.872 132.641 402.843 127.751 400.55C127.511 400.462 127.688 400.045 127.941 400.133Z" fill="#2B454E"/>
<path d="M221.963 418.442C222.898 419.377 233.796 419.782 237.766 419.782C241.735 419.782 252.62 419.377 253.556 418.442C254.491 417.507 241.293 345.155 237.766 345.155C234.238 345.155 221.027 417.507 221.963 418.442Z" fill="#1A2E35"/>
<path d="M221.748 399.994C224.44 401.018 234.39 405.048 236.565 406.312C236.565 405.857 236.565 405.402 236.565 404.947L229.32 400.74C226.792 399.223 223.96 397.884 221.545 396.115C221.432 396.027 221.545 395.787 221.659 395.85C224.278 397.084 226.812 398.489 229.245 400.057C231.697 401.485 234.112 402.976 236.539 404.467C236.539 400.992 236.539 397.53 236.539 394.055C232.603 392.426 228.799 390.496 225.161 388.281C225.035 388.205 225.161 387.978 225.262 388.041C229.15 389.606 232.916 391.46 236.527 393.588V388.18C236.628 378.893 236.653 369.593 236.893 360.306C234.516 359.118 232.089 358.069 229.725 356.869C229.573 356.793 229.725 356.515 229.839 356.578C232.241 357.513 234.554 358.625 236.906 359.661C237.032 354.872 237.222 350.083 237.513 345.294C237.506 345.275 237.505 345.255 237.508 345.236C237.511 345.216 237.519 345.197 237.53 345.181C237.542 345.165 237.558 345.152 237.575 345.142C237.593 345.133 237.613 345.129 237.633 345.129C237.653 345.129 237.673 345.133 237.69 345.142C237.708 345.152 237.724 345.165 237.735 345.181C237.747 345.197 237.755 345.216 237.758 345.236C237.761 345.255 237.759 345.275 237.753 345.294C238.082 354.139 238.056 363.098 237.943 371.994C240.395 370.048 243 368.317 245.528 366.421C245.629 366.345 245.718 366.51 245.616 366.586C243.012 368.569 240.56 370.755 237.968 372.739C237.968 373.244 237.968 373.737 237.968 374.243C240.623 372.979 243.316 371.905 246.008 370.755C246.211 370.667 246.4 370.97 246.185 371.071C243.455 372.335 240.724 373.712 237.955 374.95C237.892 379.36 237.816 383.795 237.766 388.18C237.664 395.875 237.5 403.583 237.336 411.278C242.393 408.751 247.45 406.224 252.507 403.886C252.696 403.798 252.873 404.063 252.684 404.177C247.714 407.015 242.595 409.584 237.348 411.872C237.209 418.278 237.07 413.439 236.994 419.832C236.994 419.913 236.962 419.99 236.906 420.047C236.849 420.103 236.771 420.135 236.691 420.135C236.611 420.135 236.533 420.103 236.476 420.047C236.42 419.99 236.388 419.913 236.388 419.832C236.476 411.682 236.489 414.778 236.514 406.59C231.406 404.826 226.397 402.788 221.507 400.487C221.318 400.323 221.482 399.893 221.748 399.994Z" fill="#2B454E"/>
<path d="M516.998 418.442C517.934 419.377 528.831 419.782 532.788 419.782C536.745 419.782 547.643 419.377 548.579 418.442C549.514 417.507 536.316 345.155 532.788 345.155C529.261 345.155 516.062 417.507 516.998 418.442Z" fill="#1A2E35"/>
<path d="M516.783 399.994C519.463 401.018 529.426 405.048 531.6 406.312V404.947C529.198 403.532 526.783 402.142 524.369 400.74C521.696 399.331 519.097 397.788 516.581 396.115C516.467 396.027 516.581 395.787 516.695 395.85C519.315 397.081 521.849 398.487 524.28 400.057C526.733 401.485 529.16 402.976 531.575 404.467C531.575 400.992 531.575 397.53 531.575 394.055C527.638 392.429 523.834 390.498 520.197 388.281C520.07 388.205 520.197 387.978 520.298 388.041C524.186 389.606 527.951 391.46 531.562 393.588V388.18C531.663 378.893 531.676 369.593 531.916 360.306C529.552 359.118 527.112 358.069 524.748 356.869C524.596 356.793 524.748 356.515 524.874 356.578C527.276 357.513 529.577 358.625 531.942 359.661C532.068 354.872 532.245 350.083 532.536 345.294C532.536 345.261 532.549 345.229 532.573 345.205C532.596 345.181 532.629 345.168 532.662 345.168C532.696 345.168 532.728 345.181 532.752 345.205C532.775 345.229 532.789 345.261 532.789 345.294C533.117 354.139 533.092 363.098 532.978 371.994C535.431 370.048 538.035 368.317 540.564 366.421C540.665 366.345 540.766 366.51 540.665 366.586C538.06 368.569 535.608 370.755 533.003 372.739C533.003 373.244 533.003 373.737 533.003 374.243C535.658 372.979 538.351 371.905 541.031 370.755C541.246 370.667 541.436 370.97 541.221 371.071C538.49 372.335 535.76 373.712 532.991 374.95C532.991 379.36 532.852 383.795 532.801 388.18C532.7 395.875 532.523 403.583 532.359 411.278C537.416 408.751 542.473 406.224 547.53 403.886C547.568 403.864 547.614 403.859 547.656 403.87C547.699 403.882 547.735 403.911 547.757 403.949C547.779 403.988 547.785 404.033 547.773 404.076C547.761 404.119 547.732 404.155 547.694 404.177C542.725 407.017 537.606 409.586 532.359 411.872C532.22 418.278 532.093 413.439 532.005 419.832C531.991 419.9 531.953 419.962 531.899 420.006C531.845 420.05 531.777 420.074 531.708 420.074C531.638 420.074 531.57 420.05 531.516 420.006C531.462 419.962 531.425 419.9 531.411 419.832C531.499 411.682 531.512 414.778 531.537 406.59C526.427 404.83 521.418 402.793 516.53 400.487C516.341 400.323 516.518 399.893 516.783 399.994Z" fill="#2B454E"/>
<path d="M399.601 413.236H397.73V418.505H399.601V413.236Z" fill="#1A2E35"/>
<path d="M309.069 413.236H307.198V418.505H309.069V413.236Z" fill="#1A2E35"/>
<path d="M307.198 418.493L333.62 379.234L360.738 418.493H307.198Z" fill="#3CFFA2"/>
<path opacity="0.1" d="M307.198 418.493L333.62 379.234L360.738 418.493H307.198Z" fill="black"/>
<path d="M333.62 379.234H372.356L399.272 418.493H360.738L333.62 379.234Z" fill="#3CFFA2"/>
<path d="M350.131 386.373H367.83L373.216 394.232H355.555L350.131 386.373Z" fill="white"/>
<path opacity="0.3" d="M324.935 418.493H341.598L333.62 379.234L324.935 418.493Z" fill="black"/>
<path d="M361.661 413.236H359.79V418.505H361.661V413.236Z" fill="#1A2E35"/>
<path d="M333.62 379.221C327.223 391.983 319.802 406.009 312.874 418.493C319.284 405.731 326.692 391.705 333.62 379.221Z" fill="white"/>
<path d="M333.62 379.221C340.485 391.629 347.805 405.592 354.151 418.278C347.287 405.857 339.954 391.92 333.62 379.221Z" fill="white"/>
<path d="M324.91 418.493C323.707 414.381 321.282 410.733 317.956 408.03L333.595 379.221L324.91 418.493Z" fill="#3CFFA2"/>
<path d="M341.597 418.493L333.62 379.221L349.903 409.547C347.733 409.93 345.747 411.011 344.247 412.626C342.748 414.24 341.817 416.301 341.597 418.493Z" fill="#3CFFA2"/>
<path d="M190.786 142.379C190.476 142.024 190.142 141.691 189.788 141.38C189.478 141.029 189.149 140.696 188.801 140.382C188.488 140.035 188.154 139.706 187.803 139.396C187.493 139.045 187.164 138.712 186.817 138.398C186.51 138.048 186.181 137.719 185.83 137.413C185.52 137.058 185.186 136.725 184.832 136.414C184.522 136.067 184.193 135.738 183.846 135.429C183.535 135.074 183.202 134.741 182.847 134.431C182.541 134.08 182.211 133.751 181.861 133.445C180.837 132.33 179.648 131.379 178.334 130.627V31.1722C178.334 30.6541 178.068 30.3887 178.068 29.9086C178.134 29.3675 178.041 28.8191 177.803 28.3291C177.803 28.0638 177.55 27.5331 177.55 27.2677C177.414 26.7284 177.236 26.2004 177.019 25.6883C176.734 25.3994 176.548 25.0278 176.488 24.6269C176.189 24.1625 175.832 23.7379 175.426 23.3633C175.16 23.098 174.907 22.5799 174.642 22.3019L173.58 21.2532C173.58 21.0889 173.378 20.9246 173.15 20.8236L172.632 20.2929H172.569C172.569 20.1286 172.379 19.977 172.151 19.8632L171.62 19.3452C171.62 19.1936 171.418 19.0293 171.191 18.9156L170.672 18.3975C170.672 18.2332 170.47 18.069 170.242 17.9679C170.015 17.8668 169.939 17.652 169.724 17.4498C169.724 17.2982 169.522 17.1339 169.294 17.0202L168.763 16.5022C168.763 16.3379 168.561 16.1736 168.333 16.0725L167.815 15.5419C167.815 15.3776 167.613 15.226 167.385 15.1122L166.854 14.5942C166.854 14.4299 166.652 14.2657 166.424 14.1646L165.906 13.6339H165.843C165.843 13.4696 165.653 13.318 165.426 13.2043L164.895 12.6862C164.895 12.5346 164.692 12.3703 164.465 12.2566L163.883 11.688C163.883 11.4353 163.365 11.1573 163.099 11.1573C163.101 11.123 163.096 11.0888 163.084 11.0567C163.072 11.0246 163.054 10.9952 163.03 10.9704C163.006 10.9455 162.978 10.9258 162.946 10.9123C162.915 10.8988 162.881 10.8919 162.847 10.8919C162.303 10.6392 162.037 10.3739 161.582 10.1085C161.304 9.83054 160.786 9.57782 160.318 9.04713C160.04 9.04713 159.522 8.79441 159.256 8.79441C158.725 8.51643 157.992 8.51643 157.676 8.25108C157.24 8.27744 156.804 8.19038 156.412 7.99837H151.924C151.609 8.20108 151.234 8.29023 150.862 8.25108C150.078 8.51643 149.597 8.51643 149.281 8.79441C148.763 8.79441 148.497 9.04713 148.219 9.57782C147.651 9.58906 147.099 9.77428 146.639 10.1085C146.386 10.3739 145.855 10.6392 145.577 10.8919C145.242 11.2744 144.803 11.5511 144.313 11.688C144.119 12.087 143.853 12.4468 143.529 12.7494C143.264 13.0147 143.264 13.2674 142.998 13.2674L44.6023 134.052C42.2797 136.83 41.1155 140.395 41.3509 144.008C41.5862 147.622 43.2031 151.006 45.8665 153.46C46.1735 153.822 46.5074 154.159 46.8653 154.471C47.1768 154.829 47.5149 155.162 47.8767 155.469C48.1837 155.831 48.5175 156.169 48.8754 156.48C49.187 156.838 49.525 157.171 49.8868 157.478C50.1938 157.84 50.5277 158.178 50.8856 158.489C51.1938 158.85 51.5322 159.184 51.897 159.487C52.2015 159.855 52.5401 160.194 52.9083 160.498C53.2153 160.86 53.5492 161.198 53.9071 161.509C54.2186 161.867 54.5567 162.2 54.9185 162.507C55.5405 163.21 56.2308 163.849 56.9792 164.415C59.4615 166.569 62.6705 167.698 65.9553 167.574H139.066V177.581C139.042 179.617 139.45 181.634 140.263 183.501C141.075 185.368 142.275 187.041 143.782 188.41C144.085 188.751 144.414 189.067 144.743 189.37C145.059 189.712 145.387 190.04 145.729 190.343C146.032 190.685 146.361 191.001 146.69 191.316C147.006 191.658 147.334 191.986 147.676 192.289C147.979 192.63 148.308 192.946 148.637 193.262C148.953 193.603 149.281 193.932 149.623 194.235C149.926 194.564 150.255 194.88 150.583 195.196C150.889 195.539 151.214 195.863 151.557 196.168C151.873 196.497 152.189 196.826 152.53 197.129C154.521 199.273 157.111 200.77 159.964 201.424C162.816 202.078 165.8 201.86 168.527 200.797C171.254 199.734 173.598 197.876 175.254 195.464C176.911 193.052 177.803 190.198 177.815 187.273V167.574H180.786C183.74 167.644 186.644 166.806 189.107 165.173C191.569 163.541 193.471 161.193 194.556 158.446C195.641 155.699 195.856 152.685 195.173 149.812C194.49 146.939 192.941 144.344 190.736 142.379H190.786ZM139.066 85.9224V128.568H104.73L139.066 85.9224Z" fill="#307555"/>
<path opacity="0.1" d="M190.786 142.379C190.476 142.024 190.142 141.691 189.788 141.38C189.478 141.029 189.149 140.696 188.801 140.382C188.488 140.035 188.154 139.706 187.803 139.396C187.493 139.045 187.164 138.712 186.817 138.398C186.51 138.048 186.181 137.719 185.83 137.413C185.52 137.058 185.186 136.725 184.832 136.414C184.522 136.067 184.193 135.738 183.846 135.429C183.535 135.074 183.202 134.741 182.847 134.431C182.541 134.08 182.211 133.751 181.861 133.445C180.837 132.33 179.648 131.379 178.334 130.627V31.1722C178.334 30.6541 178.068 30.3887 178.068 29.9086C178.134 29.3675 178.041 28.8191 177.803 28.3291C177.803 28.0638 177.55 27.5331 177.55 27.2677C177.414 26.7284 177.236 26.2004 177.019 25.6883C176.734 25.3994 176.548 25.0278 176.488 24.6269C176.189 24.1625 175.832 23.7379 175.426 23.3633C175.16 23.098 174.907 22.5799 174.642 22.3019L173.58 21.2532C173.58 21.0889 173.378 20.9246 173.15 20.8236L172.632 20.2929H172.569C172.569 20.1286 172.379 19.977 172.151 19.8632L171.62 19.3452C171.62 19.1936 171.418 19.0293 171.191 18.9156L170.672 18.3975C170.672 18.2332 170.47 18.069 170.242 17.9679C170.015 17.8668 169.939 17.652 169.724 17.4498C169.724 17.2982 169.522 17.1339 169.294 17.0202L168.763 16.5022C168.763 16.3379 168.561 16.1736 168.333 16.0725L167.815 15.5419C167.815 15.3776 167.613 15.226 167.385 15.1122L166.854 14.5942C166.854 14.4299 166.652 14.2657 166.424 14.1646L165.906 13.6339H165.843C165.843 13.4696 165.653 13.318 165.426 13.2043L164.895 12.6862C164.895 12.5346 164.692 12.3703 164.465 12.2566L163.883 11.688C163.883 11.4353 163.365 11.1573 163.099 11.1573C163.101 11.123 163.096 11.0888 163.084 11.0567C163.072 11.0246 163.054 10.9952 163.03 10.9704C163.006 10.9455 162.978 10.9258 162.946 10.9123C162.915 10.8988 162.881 10.8919 162.847 10.8919C162.303 10.6392 162.037 10.3739 161.582 10.1085C161.304 9.83054 160.786 9.57782 160.318 9.04713C160.04 9.04713 159.522 8.79441 159.256 8.79441C158.725 8.51643 157.992 8.51643 157.676 8.25108C157.24 8.27744 156.804 8.19038 156.412 7.99837H151.924C151.609 8.20108 151.234 8.29023 150.862 8.25108C150.078 8.51643 149.597 8.51643 149.281 8.79441C148.763 8.79441 148.497 9.04713 148.219 9.57782C147.651 9.58906 147.099 9.77428 146.639 10.1085C146.386 10.3739 145.855 10.6392 145.577 10.8919C145.242 11.2744 144.803 11.5511 144.313 11.688C144.119 12.087 143.853 12.4468 143.529 12.7494C143.264 13.0147 143.264 13.2674 142.998 13.2674L44.6023 134.052C42.2797 136.83 41.1155 140.395 41.3509 144.008C41.5862 147.622 43.2031 151.006 45.8665 153.46C46.1735 153.822 46.5074 154.159 46.8653 154.471C47.1768 154.829 47.5149 155.162 47.8767 155.469C48.1837 155.831 48.5175 156.169 48.8754 156.48C49.187 156.838 49.525 157.171 49.8868 157.478C50.1938 157.84 50.5277 158.178 50.8856 158.489C51.1938 158.85 51.5322 159.184 51.897 159.487C52.2015 159.855 52.5401 160.194 52.9083 160.498C53.2153 160.86 53.5492 161.198 53.9071 161.509C54.2186 161.867 54.5567 162.2 54.9185 162.507C55.5405 163.21 56.2308 163.849 56.9792 164.415C59.4615 166.569 62.6705 167.698 65.9553 167.574H139.066V177.581C139.042 179.617 139.45 181.634 140.263 183.501C141.075 185.368 142.275 187.041 143.782 188.41C144.085 188.751 144.414 189.067 144.743 189.37C145.059 189.712 145.387 190.04 145.729 190.343C146.032 190.685 146.361 191.001 146.69 191.316C147.006 191.658 147.334 191.986 147.676 192.289C147.979 192.63 148.308 192.946 148.637 193.262C148.953 193.603 149.281 193.932 149.623 194.235C149.926 194.564 150.255 194.88 150.583 195.196C150.889 195.539 151.214 195.863 151.557 196.168C151.873 196.497 152.189 196.826 152.53 197.129C154.521 199.273 157.111 200.77 159.964 201.424C162.816 202.078 165.8 201.86 168.527 200.797C171.254 199.734 173.598 197.876 175.254 195.464C176.911 193.052 177.803 190.198 177.815 187.273V167.574H180.786C183.74 167.644 186.644 166.806 189.107 165.173C191.569 163.541 193.471 161.193 194.556 158.446C195.641 155.699 195.856 152.685 195.173 149.812C194.49 146.939 192.941 144.344 190.736 142.379H190.786ZM139.066 85.9224V128.568H104.73L139.066 85.9224Z" fill="white"/>
<path d="M185.565 143.023C185.562 144.951 185.175 146.858 184.427 148.635C183.679 150.412 182.585 152.022 181.209 153.372C179.832 154.722 178.2 155.785 176.409 156.498C174.617 157.212 172.702 157.562 170.773 157.529H168.144V177.581C168.144 181.435 166.612 185.131 163.885 187.856C161.159 190.582 157.461 192.112 153.605 192.112C149.749 192.112 146.051 190.582 143.325 187.856C140.598 185.131 139.066 181.435 139.066 177.581V157.529H55.9425C52.6562 157.648 49.4474 156.514 46.9664 154.357C45.4387 153.208 44.1603 151.76 43.2085 150.102C42.2567 148.445 41.6514 146.611 41.4292 144.713C41.207 142.815 41.3726 140.891 41.9158 139.058C42.459 137.226 43.3686 135.523 44.5896 134.052L142.265 12.6356C142.53 12.6356 142.53 12.3703 142.796 12.1176C143.124 11.8152 143.394 11.4555 143.592 11.0562C144.073 10.9064 144.508 10.6368 144.856 10.2728C145.122 10.0074 145.653 9.74208 145.906 9.47673C146.371 9.14366 146.926 8.9587 147.499 8.94603C147.764 8.41534 148.017 8.14999 148.548 8.14999C148.814 7.89727 149.345 7.89727 150.141 7.63193C150.511 7.67079 150.883 7.57673 151.19 7.36658H155.678C156.067 7.56936 156.505 7.66117 156.943 7.63193C157.195 7.89727 157.992 7.89727 158.523 8.14999C158.788 8.14999 159.307 8.41534 159.572 8.41534C160.103 8.94603 160.634 9.21138 160.836 9.47673C161.355 9.74208 161.62 10.0074 162.101 10.2728C162.135 10.2711 162.169 10.2763 162.201 10.2883C162.233 10.3002 162.263 10.3185 162.288 10.3422C162.313 10.3658 162.332 10.3943 162.346 10.4258C162.359 10.4573 162.366 10.4912 162.366 10.5255C162.632 10.5255 163.163 10.7908 163.163 11.0562L164.212 12.1176C164.477 12.3703 164.743 12.901 165.008 13.1663C165.408 13.567 165.76 14.0122 166.058 14.4931C166.127 14.8875 166.312 15.2525 166.589 15.5418C166.804 16.0546 166.982 16.5825 167.12 17.1213C167.12 17.3867 167.385 17.9173 167.385 18.1827C167.614 18.6758 167.701 19.2224 167.638 19.7622C167.638 20.2929 167.904 20.5582 167.904 21.0257V128.429H170.546C172.495 128.387 174.432 128.733 176.246 129.446C178.06 130.159 179.714 131.226 181.111 132.584C182.509 133.942 183.622 135.564 184.387 137.357C185.152 139.149 185.552 141.075 185.565 143.023ZM139.066 63.3299L86.5624 128.505H139.066V63.3299Z" fill="#3CFFA2"/>
<path d="M339.979 46.7519C337.005 42.2015 333.541 37.9898 329.65 34.1921C329.515 34.029 329.362 33.8808 329.195 33.7498C329.155 33.6973 329.109 33.6506 329.056 33.6108L328.689 33.2191C328.348 32.8653 327.994 32.5242 327.64 32.183C327.614 32.1504 327.584 32.1208 327.552 32.0945L327.185 31.7407C327.149 31.6853 327.101 31.638 327.046 31.6018C326.932 31.4628 326.806 31.3364 326.679 31.21C326.338 30.8563 325.971 30.5151 325.63 30.1739C325.606 30.1349 325.571 30.1041 325.529 30.0855L325.175 29.719L325.036 29.5927C324.922 29.4537 324.796 29.3273 324.669 29.201C324.328 28.8345 323.961 28.506 323.62 28.1522L323.519 28.0764L323.165 27.71L323.026 27.5836C322.909 27.4438 322.782 27.3129 322.646 27.1919C322.318 26.8255 321.951 26.497 321.61 26.1432L321.509 26.0673C321.4 25.9361 321.282 25.8136 321.155 25.7009L321.016 25.5745C310.421 14.6447 296.59 7.41711 281.091 7.41711C260.231 7.41711 243.075 19.8127 231.975 36.6939C220.369 53.5878 214.276 75.498 214.036 99.7585C214.301 123.766 220.357 145.929 231.975 162.823C234.955 167.287 238.382 171.436 242.203 175.206L242.721 175.711H242.797C243.101 176.04 243.417 176.343 243.733 176.659L244.213 177.152C244.39 177.329 244.567 177.48 244.731 177.657C244.765 177.672 244.792 177.699 244.807 177.733L245.743 178.668L246.223 179.161L246.754 179.666C246.759 179.691 246.759 179.717 246.754 179.742L247.69 180.677L248.17 181.17L248.701 181.688L249.637 182.623L250.117 183.116L250.648 183.634C250.652 183.655 250.652 183.676 250.648 183.697L251.584 184.632C262.026 195.057 275.478 202.031 290.952 202.031C311.281 202.031 328.702 189.396 339.79 172.742C351.168 155.848 357.489 133.698 357.489 109.69C357.666 85.5307 351.332 63.6331 339.979 46.7519ZM305.63 146.447C297.968 157.819 289.271 162.81 281.091 162.81C276.071 162.693 271.211 161.019 267.184 158.021C266.818 157.541 266.451 157.023 266.084 156.505C258.701 145.411 253.442 128.542 253.442 109.753C253.442 90.7998 258.727 74.1334 266.084 62.7865C273.986 51.8062 282.962 46.4865 291.142 46.7519C295.911 46.7254 300.56 48.2463 304.391 51.0859C304.808 51.6419 305.225 52.2105 305.655 52.7917C313.051 64.1638 318.297 80.7544 318.297 99.7585C318.31 118.484 313.026 135.366 305.63 146.447Z" fill="#1C6944"/>
<path opacity="0.1" d="M339.979 46.7519C337.005 42.2015 333.541 37.9898 329.65 34.1921C329.515 34.029 329.362 33.8808 329.195 33.7498C329.155 33.6973 329.109 33.6506 329.056 33.6108L328.689 33.2191C328.348 32.8653 327.994 32.5242 327.64 32.183C327.614 32.1504 327.584 32.1208 327.552 32.0945L327.185 31.7407C327.149 31.6853 327.101 31.638 327.046 31.6018C326.932 31.4628 326.806 31.3364 326.679 31.21C326.338 30.8563 325.971 30.5151 325.63 30.1739C325.606 30.1349 325.571 30.1041 325.529 30.0855L325.175 29.719L325.036 29.5927C324.922 29.4537 324.796 29.3273 324.669 29.201C324.328 28.8345 323.961 28.506 323.62 28.1522L323.519 28.0764L323.165 27.71L323.026 27.5836C322.909 27.4438 322.782 27.3129 322.646 27.1919C322.318 26.8255 321.951 26.497 321.61 26.1432L321.509 26.0673C321.4 25.9361 321.282 25.8136 321.155 25.7009L321.016 25.5745C310.421 14.6447 296.59 7.41711 281.091 7.41711C260.231 7.41711 243.075 19.8127 231.975 36.6939C220.369 53.5878 214.276 75.498 214.036 99.7585C214.301 123.766 220.357 145.929 231.975 162.823C234.955 167.287 238.382 171.436 242.203 175.206L242.721 175.711H242.797C243.101 176.04 243.417 176.343 243.733 176.659L244.213 177.152C244.39 177.329 244.567 177.48 244.731 177.657C244.765 177.672 244.792 177.699 244.807 177.733L245.743 178.668L246.223 179.161L246.754 179.666C246.759 179.691 246.759 179.717 246.754 179.742L247.69 180.677L248.17 181.17L248.701 181.688L249.637 182.623L250.117 183.116L250.648 183.634C250.652 183.655 250.652 183.676 250.648 183.697L251.584 184.632C262.026 195.057 275.478 202.031 290.952 202.031C311.281 202.031 328.702 189.396 339.79 172.742C351.168 155.848 357.489 133.698 357.489 109.69C357.666 85.5307 351.332 63.6331 339.979 46.7519ZM305.63 146.447C297.968 157.819 289.271 162.81 281.091 162.81C276.071 162.693 271.211 161.019 267.184 158.021C266.818 157.541 266.451 157.023 266.084 156.505C258.701 145.411 253.442 128.542 253.442 109.753C253.442 90.7998 258.727 74.1334 266.084 62.7865C273.986 51.8062 282.962 46.4865 291.142 46.7519C295.911 46.7254 300.56 48.2463 304.391 51.0859C304.808 51.6419 305.225 52.2105 305.655 52.7917C313.051 64.1638 318.297 80.7544 318.297 99.7585C318.31 118.484 313.026 135.366 305.63 146.447Z" fill="white"/>
<path d="M214.036 99.7458C214.301 75.4727 220.357 53.5752 231.988 36.6939C243.063 19.8001 260.231 7.40448 281.078 7.40448C301.407 7.40448 318.828 19.8001 329.928 36.6939C341.307 53.5752 347.628 75.4727 347.628 99.7458C347.628 123.754 341.307 145.917 329.928 162.81C318.828 179.426 301.407 192.062 281.078 192.062C260.231 192.062 243.063 179.426 231.988 162.785C220.369 145.917 214.301 123.754 214.036 99.7458ZM318.297 99.7458C318.297 80.7924 313.026 64.1259 305.655 52.7791C297.981 41.6976 289.271 36.4286 281.078 36.6434C272.899 36.378 263.923 41.6976 256.008 52.7286C248.613 64.1006 243.366 80.7039 243.366 99.6953C243.366 118.434 248.651 135.315 256.008 146.447C263.923 157.819 272.899 162.81 281.078 162.81C289.258 162.81 297.981 157.756 305.63 146.447C313.026 135.366 318.297 118.484 318.297 99.7458Z" fill="#3CFFA2"/>
<path d="M519.83 142.379C519.501 142.025 519.173 141.684 518.831 141.38C518.515 141.026 518.174 140.698 517.845 140.382C517.516 140.041 517.188 139.7 516.846 139.396C516.53 139.043 516.189 138.714 515.86 138.398C515.532 138.057 515.203 137.716 514.861 137.413C514.545 137.059 514.204 136.73 513.863 136.414C513.547 136.073 513.205 135.732 512.877 135.429C512.548 135.075 512.219 134.734 511.878 134.431C511.562 134.077 511.22 133.748 510.892 133.445C509.867 132.326 508.673 131.375 507.352 130.627V31.1721C507.352 30.6541 507.086 30.3887 507.086 29.9086C507.152 29.3675 507.06 28.8191 506.821 28.3291C506.821 28.0638 506.568 27.5331 506.568 27.2677C506.432 26.7284 506.254 26.2003 506.037 25.6883C505.757 25.396 505.572 25.026 505.506 24.6269C505.211 24.1596 504.854 23.7345 504.444 23.3633C504.179 23.098 503.926 22.5799 503.66 22.3019L502.598 21.2532C502.598 21.0889 502.396 20.9246 502.169 20.8235L501.524 20.217H501.461C501.461 20.0528 501.271 19.9011 501.043 19.7874L500.512 19.2694C500.512 19.1177 500.31 18.9535 500.083 18.8397L499.564 18.3217H499.501C499.501 18.1574 499.299 17.9932 499.071 17.8921L498.553 17.374C498.553 17.2224 498.351 17.0581 498.123 16.9444L497.592 16.4263C497.592 16.2621 497.39 16.0978 497.162 15.9967L496.644 15.466C496.644 15.3018 496.442 15.1501 496.214 15.0364L495.683 14.5184C495.683 14.3541 495.481 14.1898 495.253 14.0887L494.735 13.558H494.672C494.672 13.3938 494.482 13.2422 494.254 13.1284L493.723 12.6104C493.723 12.4587 493.521 12.2945 493.294 12.1808L492.712 11.6122C492.712 11.3594 492.194 11.0815 491.928 11.0815C491.928 11.0111 491.9 10.9436 491.85 10.8938C491.801 10.8441 491.733 10.8161 491.663 10.8161C491.132 10.5634 490.866 10.298 490.398 10.0327C490.12 9.75472 489.602 9.502 489.134 8.97131C488.856 8.97131 488.338 8.71859 488.072 8.71859C487.541 8.44061 486.808 8.44061 486.492 8.17526C486.035 8.21295 485.576 8.12559 485.165 7.92255H480.676C480.362 8.12525 479.987 8.21441 479.614 8.17526C478.831 8.44061 478.35 8.44061 478.034 8.71859C477.516 8.71859 477.25 8.97131 476.972 9.502C476.404 9.51484 475.853 9.69991 475.392 10.0327C475.139 10.298 474.608 10.5634 474.343 10.8161C473.986 11.2033 473.525 11.4797 473.015 11.6122C472.818 12.009 472.553 12.3683 472.231 12.6736C471.966 12.9389 471.966 13.1916 471.7 13.1916L374.038 134.57C371.715 137.348 370.551 140.913 370.786 144.527C371.022 148.14 372.639 151.524 375.302 153.978C375.964 154.656 376.634 155.326 377.312 155.987C377.974 156.665 378.644 157.335 379.322 157.996C379.629 158.358 379.963 158.696 380.321 159.007C380.629 159.368 380.968 159.702 381.333 160.005C381.637 160.373 381.976 160.712 382.344 161.016C383.005 161.694 383.676 162.364 384.354 163.025C384.979 163.725 385.669 164.364 386.415 164.933C388.897 167.087 392.106 168.216 395.391 168.092H468.489V178.099C468.467 180.136 468.877 182.154 469.692 184.02C470.507 185.887 471.709 187.559 473.217 188.928C473.523 189.271 473.848 189.596 474.191 189.901C474.507 190.23 474.823 190.558 475.164 190.861C475.468 191.215 475.809 191.531 476.138 191.847C476.454 192.176 476.77 192.504 477.111 192.807C477.415 193.161 477.756 193.477 478.085 193.793C478.388 194.121 478.704 194.45 479.046 194.753C479.349 195.107 479.69 195.423 480.019 195.739C480.322 196.08 480.651 196.396 480.98 196.699C481.296 197.04 481.625 197.369 481.966 197.672C483.957 199.817 486.548 201.314 489.402 201.968C492.256 202.622 495.241 202.402 497.968 201.338C500.696 200.273 503.04 198.413 504.695 195.999C506.35 193.586 507.241 190.73 507.251 187.804V167.574H509.893C512.848 167.646 515.754 166.81 518.219 165.179C520.683 163.548 522.587 161.199 523.674 158.452C524.76 155.704 524.976 152.689 524.293 149.815C523.611 146.941 522.061 144.345 519.855 142.379H519.83ZM468.135 85.9224V128.568H433.761L468.135 85.9224Z" fill="#307555"/>
<path opacity="0.1" d="M519.83 142.379C519.501 142.025 519.173 141.684 518.831 141.38C518.515 141.026 518.174 140.698 517.845 140.382C517.516 140.041 517.188 139.7 516.846 139.396C516.53 139.043 516.189 138.714 515.86 138.398C515.532 138.057 515.203 137.716 514.861 137.413C514.545 137.059 514.204 136.73 513.863 136.414C513.547 136.073 513.205 135.732 512.877 135.429C512.548 135.075 512.219 134.734 511.878 134.431C511.562 134.077 511.22 133.748 510.892 133.445C509.867 132.326 508.673 131.375 507.352 130.627V31.1721C507.352 30.6541 507.086 30.3887 507.086 29.9086C507.152 29.3675 507.06 28.8191 506.821 28.3291C506.821 28.0638 506.568 27.5331 506.568 27.2677C506.432 26.7284 506.254 26.2003 506.037 25.6883C505.757 25.396 505.572 25.026 505.506 24.6269C505.211 24.1596 504.854 23.7345 504.444 23.3633C504.179 23.098 503.926 22.5799 503.66 22.3019L502.598 21.2532C502.598 21.0889 502.396 20.9246 502.169 20.8235L501.524 20.217H501.461C501.461 20.0528 501.271 19.9011 501.043 19.7874L500.512 19.2694C500.512 19.1177 500.31 18.9535 500.083 18.8397L499.564 18.3217H499.501C499.501 18.1574 499.299 17.9932 499.071 17.8921L498.553 17.374C498.553 17.2224 498.351 17.0581 498.123 16.9444L497.592 16.4263C497.592 16.2621 497.39 16.0978 497.162 15.9967L496.644 15.466C496.644 15.3018 496.442 15.1501 496.214 15.0364L495.683 14.5184C495.683 14.3541 495.481 14.1898 495.253 14.0887L494.735 13.558H494.672C494.672 13.3938 494.482 13.2422 494.254 13.1284L493.723 12.6104C493.723 12.4587 493.521 12.2945 493.294 12.1808L492.712 11.6122C492.712 11.3594 492.194 11.0815 491.928 11.0815C491.928 11.0111 491.9 10.9436 491.85 10.8938C491.801 10.8441 491.733 10.8161 491.663 10.8161C491.132 10.5634 490.866 10.298 490.398 10.0327C490.12 9.75472 489.602 9.502 489.134 8.97131C488.856 8.97131 488.338 8.71859 488.072 8.71859C487.541 8.44061 486.808 8.44061 486.492 8.17526C486.035 8.21295 485.576 8.12559 485.165 7.92255H480.676C480.362 8.12525 479.987 8.21441 479.614 8.17526C478.831 8.44061 478.35 8.44061 478.034 8.71859C477.516 8.71859 477.25 8.97131 476.972 9.502C476.404 9.51484 475.853 9.69991 475.392 10.0327C475.139 10.298 474.608 10.5634 474.343 10.8161C473.986 11.2033 473.525 11.4797 473.015 11.6122C472.818 12.009 472.553 12.3683 472.231 12.6736C471.966 12.9389 471.966 13.1916 471.7 13.1916L374.038 134.57C371.715 137.348 370.551 140.913 370.786 144.527C371.022 148.14 372.639 151.524 375.302 153.978C375.964 154.656 376.634 155.326 377.312 155.987C377.974 156.665 378.644 157.335 379.322 157.996C379.629 158.358 379.963 158.696 380.321 159.007C380.629 159.368 380.968 159.702 381.333 160.005C381.637 160.373 381.976 160.712 382.344 161.016C383.005 161.694 383.676 162.364 384.354 163.025C384.979 163.725 385.669 164.364 386.415 164.933C388.897 167.087 392.106 168.216 395.391 168.092H468.489V178.099C468.467 180.136 468.877 182.154 469.692 184.02C470.507 185.887 471.709 187.559 473.217 188.928C473.523 189.271 473.848 189.596 474.191 189.901C474.507 190.23 474.823 190.558 475.164 190.861C475.468 191.215 475.809 191.531 476.138 191.847C476.454 192.176 476.77 192.504 477.111 192.807C477.415 193.161 477.756 193.477 478.085 193.793C478.388 194.121 478.704 194.45 479.046 194.753C479.349 195.107 479.69 195.423 480.019 195.739C480.322 196.08 480.651 196.396 480.98 196.699C481.296 197.04 481.625 197.369 481.966 197.672C483.957 199.817 486.548 201.314 489.402 201.968C492.256 202.622 495.241 202.402 497.968 201.338C500.696 200.273 503.04 198.413 504.695 195.999C506.35 193.586 507.241 190.73 507.251 187.804V167.574H509.893C512.848 167.646 515.754 166.81 518.219 165.179C520.683 163.548 522.587 161.199 523.674 158.452C524.76 155.704 524.976 152.689 524.293 149.815C523.611 146.941 522.061 144.345 519.855 142.379H519.83ZM468.135 85.9224V128.568H433.761L468.135 85.9224Z" fill="white"/>
<path d="M514.545 143.023C514.542 144.95 514.156 146.858 513.408 148.635C512.66 150.412 511.566 152.022 510.189 153.372C508.812 154.722 507.181 155.785 505.389 156.498C503.598 157.212 501.682 157.562 499.754 157.529H497.111V177.581C497.111 181.435 495.58 185.131 492.853 187.856C490.127 190.581 486.429 192.112 482.573 192.112C478.717 192.112 475.019 190.581 472.292 187.856C469.566 185.131 468.034 181.435 468.034 177.581V157.529H384.973C381.687 157.649 378.478 156.515 375.997 154.357C374.468 153.209 373.188 151.762 372.236 150.104C371.283 148.446 370.677 146.612 370.455 144.713C370.232 142.815 370.398 140.891 370.943 139.058C371.487 137.225 372.398 135.522 373.621 134.052L471.296 12.6356C471.561 12.6356 471.561 12.3703 471.827 12.1176C472.155 11.8152 472.425 11.4555 472.623 11.0562C473.104 10.9064 473.539 10.6368 473.887 10.2728C474.153 10.0074 474.684 9.74208 474.949 9.47673C475.438 9.13748 476.023 8.96468 476.618 8.98394C476.871 8.45324 477.136 8.18789 477.667 8.18789C477.933 7.93518 478.464 7.93518 479.26 7.66983C479.631 7.70759 480.002 7.61362 480.31 7.40448H484.798C485.187 7.60789 485.624 7.69973 486.062 7.66983C486.328 7.93518 487.124 7.93518 487.655 8.18789C487.92 8.18789 488.451 8.45324 488.704 8.45324C489.235 8.98394 489.766 9.24929 489.969 9.51463C490.5 9.77998 490.765 10.0453 491.296 10.3107C491.33 10.309 491.364 10.3142 491.397 10.3262C491.429 10.3381 491.458 10.3564 491.483 10.3801C491.508 10.4037 491.528 10.4322 491.541 10.4637C491.555 10.4952 491.562 10.5291 491.561 10.5634C491.827 10.5634 492.358 10.8287 492.358 11.0941L493.407 12.1555C493.673 12.4082 493.938 12.9389 494.204 13.2042C494.609 13.6034 494.965 14.0487 495.266 14.531C495.33 14.9245 495.51 15.2897 495.784 15.5797C495.999 16.0925 496.177 16.6204 496.315 17.1592C496.315 17.4246 496.568 17.9552 496.568 18.2206C496.807 18.7106 496.899 19.259 496.833 19.8001C496.833 20.3307 497.099 20.5961 497.099 21.0636V128.467H499.741C503.634 128.44 507.379 129.957 510.154 132.686C512.929 135.415 514.509 139.132 514.545 143.023ZM468.135 63.3299L415.593 128.505H468.135V63.3299Z" fill="#3CFFA2"/>
<path opacity="0.2" d="M291.382 416.345C298.804 416.345 304.821 410.331 304.821 402.913C304.821 395.495 298.804 389.481 291.382 389.481C283.96 389.481 277.943 395.495 277.943 402.913C277.943 410.331 283.96 416.345 291.382 416.345Z" fill="#3CFFA2"/>
<path opacity="0.2" d="M291.382 416.282C297.08 416.282 301.698 411.665 301.698 405.971C301.698 400.276 297.08 395.66 291.382 395.66C285.685 395.66 281.066 400.276 281.066 405.971C281.066 411.665 285.685 416.282 291.382 416.282Z" fill="#3CFFA2"/>
<path d="M292.305 416.256C292.305 416.256 284.113 415.056 283.619 415.372C283.126 415.688 282.671 418.076 283.619 418.657C284.568 419.238 292.115 418.19 292.115 418.19C292.368 417.94 292.526 417.611 292.56 417.257C292.595 416.904 292.505 416.55 292.305 416.256Z" fill="#3CFFA2"/>
<path opacity="0.49" d="M292.305 416.256C292.305 416.256 284.113 415.056 283.619 415.372C283.126 415.688 282.671 418.076 283.619 418.657C284.568 419.238 292.115 418.19 292.115 418.19C292.368 417.94 292.526 417.611 292.56 417.257C292.595 416.904 292.505 416.55 292.305 416.256Z" fill="black"/>
<path opacity="0.2" d="M283.657 415.46C283.898 415.46 284.302 416.231 284.214 417.141C284.125 418.051 283.796 418.594 283.657 418.569C283.518 418.543 283.063 418.051 283.139 416.926C283.19 416.117 283.442 415.511 283.657 415.46Z" fill="white"/>
<g opacity="0.2">
<path d="M284.517 415.713C284.989 415.688 285.462 415.688 285.933 415.713H286.641L286.995 415.776C287.106 415.813 287.22 415.839 287.337 415.852C287.793 415.928 288.253 415.979 288.715 416.004L290.131 416.13C289.659 416.155 289.186 416.155 288.715 416.13C288.236 416.134 287.759 416.1 287.286 416.029C287.17 416.007 287.056 415.977 286.945 415.94L286.603 415.877L285.921 415.776L284.517 415.713Z" fill="black"/>
<path d="M285.453 416.13L286.439 416.294C286.768 416.357 287.096 416.433 287.412 416.471C287.741 416.49 288.07 416.49 288.399 416.471H289.397C289.073 416.559 288.744 416.627 288.411 416.673C288.071 416.712 287.727 416.712 287.387 416.673C287.054 416.618 286.725 416.542 286.401 416.446C286.078 416.361 285.762 416.256 285.453 416.13Z" fill="black"/>
<path d="M289.511 416.901C289.942 416.582 290.455 416.394 290.99 416.357C291.266 416.344 291.541 416.387 291.799 416.484C291.932 416.544 292.053 416.63 292.153 416.736C292.208 416.795 292.251 416.864 292.28 416.939C292.28 416.939 292.28 416.939 292.28 417.027C292.261 417.065 292.235 417.099 292.204 417.128C292.007 417.34 291.744 417.478 291.458 417.52C291.317 417.557 291.169 417.557 291.028 417.52C290.897 417.471 290.77 417.412 290.649 417.343C290.513 417.278 290.405 417.166 290.345 417.027C290.333 417.006 290.327 416.982 290.327 416.958C290.327 416.933 290.333 416.909 290.345 416.888C290.355 416.867 290.369 416.848 290.386 416.833C290.404 416.818 290.424 416.806 290.447 416.8H290.649H291.053C291.184 416.819 291.309 416.867 291.42 416.939C291.178 416.857 290.916 416.857 290.674 416.939H290.497C290.497 416.939 290.497 416.939 290.497 417.014C290.497 417.09 290.649 417.166 290.75 417.217C290.862 417.276 290.981 417.322 291.104 417.356C291.213 417.375 291.324 417.375 291.433 417.356C291.667 417.303 291.882 417.185 292.052 417.014C292.033 416.973 292.007 416.934 291.976 416.901C291.896 416.812 291.796 416.743 291.685 416.698C291.461 416.604 291.221 416.552 290.978 416.547C290.721 416.537 290.464 416.571 290.219 416.648C289.976 416.711 289.739 416.795 289.511 416.901Z" fill="black"/>
<path d="M292.204 417.697C291.884 417.864 291.537 417.976 291.18 418.025C290.999 418.051 290.816 418.051 290.636 418.025C290.45 418.009 290.267 417.966 290.093 417.899C289.766 417.766 289.449 417.61 289.144 417.431C288.836 417.266 288.503 417.15 288.158 417.09C288.521 417.068 288.884 417.128 289.22 417.267C289.549 417.406 289.852 417.57 290.181 417.684C290.494 417.808 290.83 417.864 291.167 417.848C291.517 417.835 291.865 417.784 292.204 417.697Z" fill="black"/>
<path d="M284.214 418.392H285.478C285.899 418.418 286.321 418.418 286.742 418.392C287.159 418.311 287.584 418.285 288.007 418.316C288.43 418.337 288.853 418.383 289.271 418.455H288.007C287.583 418.459 287.16 418.497 286.742 418.569C286.322 418.617 285.898 418.617 285.478 418.569C285.054 418.535 284.631 418.476 284.214 418.392Z" fill="black"/>
<path d="M289.903 418.126L288.854 417.874L288.323 417.773C288.155 417.741 287.984 417.741 287.817 417.773L286.755 417.987L286.211 418.051C286.023 418.081 285.831 418.081 285.642 418.051L285.111 417.899C284.923 417.834 284.751 417.731 284.606 417.596C284.573 417.545 284.547 417.489 284.53 417.431C284.511 417.365 284.511 417.295 284.53 417.229C284.592 417.13 284.686 417.055 284.795 417.014C284.976 416.96 285.163 416.931 285.352 416.926C285.537 416.913 285.723 416.913 285.908 416.926C286.095 416.948 286.276 417.009 286.439 417.103C286.489 417.14 286.525 417.194 286.54 417.254C286.54 417.343 286.452 417.368 286.414 417.393H286.148C285.967 417.412 285.785 417.412 285.604 417.393C285.783 417.381 285.96 417.355 286.135 417.318C286.287 417.318 286.565 417.217 286.376 417.141C286.224 417.059 286.055 417.016 285.883 417.014C285.71 416.995 285.537 416.995 285.364 417.014C285.196 417.026 285.03 417.06 284.871 417.115C284.795 417.115 284.732 417.191 284.719 417.229C284.704 417.249 284.696 417.274 284.696 417.299C284.696 417.324 284.704 417.348 284.719 417.368C284.841 417.473 284.983 417.551 285.137 417.596C285.302 417.658 285.471 417.709 285.642 417.747C285.986 417.797 286.335 417.797 286.679 417.747C287.033 417.747 287.374 417.621 287.741 417.583H288.019C288.112 417.576 288.205 417.576 288.297 417.583L288.828 417.722C289.22 417.874 289.511 417.987 289.903 418.126Z" fill="black"/>
<path d="M287.589 417.115C287.096 417.027 286.641 416.901 286.173 416.774L285.491 416.585C285.26 416.52 285.022 416.482 284.783 416.471C285.024 416.415 285.275 416.415 285.516 416.471C285.76 416.497 286.001 416.543 286.237 416.61C286.706 416.723 287.161 416.893 287.589 417.115Z" fill="black"/>
</g>
<path d="M291.167 416.206C291.167 416.206 299.385 415.094 299.878 415.422C300.371 415.751 300.775 418.126 299.789 418.708C298.803 419.289 291.281 418.139 291.281 418.139C291.041 417.879 290.899 417.545 290.879 417.193C290.858 416.84 290.96 416.492 291.167 416.206Z" fill="#3CFFA2"/>
<path opacity="0.49" d="M291.167 416.206C291.167 416.206 299.385 415.094 299.878 415.422C300.371 415.751 300.775 418.126 299.789 418.708C298.803 419.289 291.281 418.139 291.281 418.139C291.041 417.879 290.899 417.545 290.879 417.193C290.858 416.84 290.96 416.492 291.167 416.206Z" fill="black"/>
<path opacity="0.2" d="M299.827 415.511C299.587 415.511 299.17 416.269 299.258 417.179C299.347 418.088 299.65 418.632 299.789 418.619C299.928 418.606 300.396 418.101 300.32 416.976C300.282 416.155 300.042 415.561 299.827 415.511Z" fill="white"/>
<g opacity="0.2">
<path d="M291.47 417.899L292.874 417.975H293.91H294.277C294.752 417.983 295.226 418.029 295.693 418.114C296.157 418.185 296.617 418.282 297.071 418.404L295.668 418.291C295.2 418.291 294.732 418.202 294.277 418.202H293.936H293.569H292.861C292.393 418.088 291.926 418 291.47 417.899Z" fill="black"/>
<path d="M292.317 417.874C292.96 417.657 293.627 417.517 294.302 417.457C294.643 417.456 294.982 417.494 295.314 417.57C295.644 417.642 295.969 417.735 296.287 417.848L295.288 417.747C294.965 417.708 294.64 417.687 294.315 417.684C293.986 417.684 293.657 417.747 293.329 417.785L292.317 417.874Z" fill="black"/>
<path d="M296.401 417.419C296.62 417.549 296.853 417.655 297.096 417.735C297.335 417.827 297.587 417.882 297.842 417.899C298.087 417.917 298.332 417.883 298.563 417.798C298.674 417.759 298.777 417.699 298.866 417.621C298.906 417.592 298.937 417.553 298.955 417.507V417.444C298.797 417.264 298.59 417.132 298.36 417.065C298.253 417.033 298.139 417.033 298.032 417.065C297.91 417.085 297.792 417.119 297.678 417.166C297.57 417.198 297.474 417.259 297.4 417.343C297.4 417.343 297.4 417.343 297.4 417.431H297.564C297.809 417.52 298.077 417.52 298.323 417.431C298.207 417.5 298.077 417.539 297.943 417.545C297.809 417.558 297.673 417.558 297.539 417.545L297.336 417.469C297.294 417.451 297.259 417.42 297.235 417.381C297.223 417.357 297.217 417.331 297.217 417.305C297.217 417.279 297.223 417.253 297.235 417.229C297.308 417.098 297.424 416.995 297.564 416.939L297.943 416.8C298.089 416.768 298.24 416.768 298.386 416.8C298.661 416.879 298.907 417.037 299.094 417.255V417.368C299.099 417.389 299.099 417.411 299.094 417.431C299.101 417.46 299.101 417.491 299.094 417.52C299.061 417.592 299.014 417.657 298.955 417.709C298.847 417.809 298.717 417.883 298.575 417.924C298.314 418.006 298.038 418.032 297.766 418C297.268 417.929 296.797 417.729 296.401 417.419Z" fill="black"/>
<path d="M299.182 416.838C298.85 416.726 298.507 416.65 298.158 416.61C297.824 416.566 297.484 416.591 297.16 416.686C296.831 416.774 296.515 416.913 296.161 417.027C295.819 417.143 295.456 417.177 295.099 417.128C295.447 417.087 295.787 416.997 296.11 416.863C296.427 416.704 296.757 416.573 297.096 416.471C297.273 416.417 297.456 416.387 297.64 416.383C297.821 416.363 298.003 416.363 298.184 416.383C298.541 416.474 298.879 416.628 299.182 416.838Z" fill="black"/>
<path d="M294.264 416.054C294.682 415.966 295.104 415.902 295.529 415.865C295.949 415.816 296.373 415.816 296.793 415.865C297.211 415.936 297.633 415.974 298.057 415.978H299.321C298.903 416.054 298.481 416.104 298.057 416.13C297.637 416.179 297.213 416.179 296.793 416.13C296.372 416.097 295.949 416.097 295.529 416.13L294.264 416.054Z" fill="black"/>
<path d="M296.919 416.231L295.87 416.509L295.339 416.597C295.243 416.61 295.145 416.61 295.048 416.597H294.77L293.721 416.345C293.388 416.252 293.042 416.213 292.697 416.231L292.191 416.332C292.032 416.37 291.882 416.439 291.749 416.534C291.738 416.556 291.732 416.58 291.732 416.604C291.732 416.628 291.738 416.652 291.749 416.673C291.749 416.673 291.825 416.749 291.888 416.787C292.045 416.858 292.211 416.909 292.381 416.939C292.553 416.952 292.727 416.952 292.899 416.939C293.068 416.95 293.238 416.919 293.392 416.85C293.582 416.787 293.316 416.686 293.165 416.648C292.995 416.597 292.822 416.559 292.646 416.534C292.823 416.522 293.001 416.522 293.177 416.534C293.274 416.55 293.367 416.58 293.455 416.623C293.485 416.631 293.512 416.649 293.53 416.675C293.548 416.7 293.558 416.731 293.557 416.762C293.551 416.791 293.539 416.818 293.522 416.842C293.504 416.866 293.481 416.886 293.455 416.901C293.281 416.984 293.092 417.031 292.899 417.04C292.718 417.059 292.536 417.059 292.356 417.04C292.164 417.028 291.977 416.985 291.799 416.913C291.745 416.891 291.696 416.858 291.655 416.817C291.614 416.776 291.581 416.727 291.559 416.673C291.546 416.643 291.54 416.611 291.54 416.578C291.54 416.546 291.546 416.514 291.559 416.484C291.57 416.421 291.601 416.363 291.648 416.319C291.804 416.194 291.985 416.104 292.179 416.054C292.357 416.003 292.538 415.965 292.722 415.94C292.911 415.915 293.102 415.915 293.291 415.94C293.47 415.966 293.648 416.004 293.822 416.054L294.859 416.345C295.03 416.377 295.206 416.377 295.377 416.345H295.908C296.211 416.357 296.565 416.282 296.919 416.231Z" fill="black"/>
<path d="M294.568 417.052C294.127 417.266 293.659 417.419 293.177 417.507C292.939 417.549 292.698 417.579 292.457 417.596C292.207 417.615 291.956 417.576 291.723 417.482C291.963 417.501 292.204 417.501 292.444 417.482L293.139 417.343C293.569 417.191 294.037 417.103 294.568 417.052Z" fill="black"/>
<path d="M296.717 417.949C297.096 418.063 297.45 418.19 297.804 418.278L298.348 418.379H298.917C298.737 418.458 298.544 418.505 298.348 418.518C298.148 418.523 297.948 418.502 297.754 418.455C297.562 418.406 297.376 418.339 297.197 418.253C297.023 418.177 296.861 418.075 296.717 417.949Z" fill="black"/>
</g>
<path d="M298.007 398.806C298.007 398.841 298.013 398.876 298.027 398.908C298.04 398.94 298.06 398.969 298.084 398.994C298.109 399.019 298.138 399.038 298.17 399.052C298.203 399.065 298.237 399.072 298.272 399.072C298.306 399.072 298.34 399.065 298.372 399.051C298.403 399.038 298.432 399.018 298.455 398.993C298.479 398.969 298.498 398.939 298.509 398.907C298.521 398.875 298.527 398.841 298.525 398.806C298.525 398.739 298.498 398.675 298.451 398.628C298.403 398.58 298.339 398.554 298.272 398.554C298.238 398.552 298.204 398.557 298.171 398.569C298.139 398.581 298.11 398.599 298.085 398.623C298.06 398.647 298.04 398.675 298.027 398.707C298.013 398.738 298.007 398.772 298.007 398.806Z" fill="#3CFFA2"/>
<path d="M295.289 387.915C295.289 387.964 295.303 388.013 295.331 388.055C295.359 388.096 295.398 388.129 295.445 388.148C295.491 388.167 295.542 388.172 295.591 388.162C295.64 388.153 295.685 388.129 295.72 388.093C295.756 388.058 295.78 388.013 295.789 387.964C295.799 387.915 295.794 387.864 295.775 387.818C295.756 387.772 295.723 387.732 295.682 387.704C295.64 387.677 295.591 387.662 295.541 387.662C295.474 387.662 295.41 387.688 295.363 387.736C295.315 387.783 295.289 387.847 295.289 387.915Z" fill="#3CFFA2"/>
<path d="M285.554 397.151C285.58 397.172 285.611 397.187 285.643 397.196C285.676 397.205 285.71 397.208 285.743 397.204C285.777 397.2 285.809 397.189 285.838 397.172C285.868 397.156 285.893 397.133 285.914 397.107C285.935 397.08 285.95 397.05 285.959 397.018C285.968 396.985 285.971 396.951 285.967 396.918C285.963 396.884 285.952 396.852 285.935 396.823C285.919 396.793 285.896 396.768 285.87 396.747C285.847 396.722 285.82 396.703 285.79 396.689C285.759 396.676 285.726 396.669 285.693 396.669C285.66 396.669 285.627 396.676 285.596 396.689C285.566 396.703 285.538 396.722 285.516 396.747C285.486 396.773 285.464 396.806 285.449 396.843C285.435 396.88 285.429 396.919 285.433 396.959C285.437 396.998 285.45 397.036 285.471 397.069C285.491 397.103 285.52 397.131 285.554 397.151Z" fill="#3CFFA2"/>
<path d="M283.278 412.68C283.278 412.747 283.305 412.812 283.352 412.859C283.4 412.906 283.464 412.933 283.531 412.933C283.598 412.933 283.663 412.906 283.71 412.859C283.757 412.812 283.784 412.747 283.784 412.68C283.784 412.613 283.757 412.549 283.71 412.502C283.663 412.454 283.598 412.428 283.531 412.428C283.464 412.428 283.4 412.454 283.352 412.502C283.305 412.549 283.278 412.613 283.278 412.68Z" fill="#3CFFA2"/>
<path d="M299.182 410.962C299.182 411.012 299.197 411.061 299.225 411.102C299.253 411.144 299.292 411.176 299.338 411.195C299.385 411.215 299.436 411.22 299.485 411.21C299.534 411.2 299.579 411.176 299.614 411.141C299.649 411.105 299.673 411.06 299.683 411.011C299.693 410.962 299.688 410.911 299.669 410.865C299.65 410.819 299.617 410.78 299.576 410.752C299.534 410.724 299.485 410.709 299.435 410.709C299.368 410.709 299.304 410.736 299.256 410.783C299.209 410.831 299.182 410.895 299.182 410.962Z" fill="#3CFFA2"/>
<path d="M297.665 400.474C297.663 400.545 297.682 400.615 297.72 400.676C297.758 400.736 297.813 400.783 297.878 400.811C297.943 400.84 298.015 400.848 298.085 400.834C298.155 400.821 298.219 400.787 298.269 400.737C298.32 400.687 298.354 400.623 298.367 400.553C298.38 400.483 298.372 400.411 298.344 400.346C298.315 400.281 298.268 400.225 298.208 400.188C298.148 400.15 298.078 400.131 298.007 400.133C297.916 400.133 297.829 400.169 297.765 400.233C297.701 400.297 297.665 400.384 297.665 400.474Z" fill="#3CFFA2"/>
<path d="M286.983 394.308C287.056 394.361 287.146 394.383 287.235 394.372C287.324 394.36 287.406 394.315 287.463 394.245C287.527 394.179 287.563 394.091 287.563 393.999C287.563 393.907 287.527 393.818 287.463 393.752C287.427 393.725 287.387 393.704 287.343 393.693C287.3 393.681 287.254 393.678 287.21 393.684C287.165 393.69 287.122 393.704 287.083 393.727C287.044 393.749 287.01 393.78 286.983 393.815C286.918 393.881 286.883 393.97 286.883 394.062C286.883 394.154 286.918 394.242 286.983 394.308Z" fill="#3CFFA2"/>
<path d="M283.936 407.032C283.936 407.1 283.956 407.166 283.993 407.222C284.031 407.278 284.084 407.322 284.146 407.347C284.209 407.373 284.277 407.38 284.343 407.367C284.41 407.354 284.471 407.321 284.518 407.273C284.566 407.226 284.599 407.165 284.612 407.099C284.625 407.033 284.618 406.964 284.592 406.902C284.566 406.839 284.523 406.786 284.467 406.749C284.41 406.711 284.344 406.691 284.277 406.691C284.186 406.691 284.1 406.727 284.036 406.791C283.972 406.855 283.936 406.942 283.936 407.032Z" fill="#3CFFA2"/>
<path d="M297.096 399.982C297.096 400.022 297.112 400.06 297.141 400.089C297.169 400.117 297.208 400.133 297.248 400.133C297.288 400.133 297.327 400.117 297.355 400.089C297.384 400.06 297.4 400.022 297.4 399.982C297.397 399.942 297.38 399.905 297.352 399.878C297.324 399.85 297.287 399.833 297.248 399.83C297.208 399.83 297.169 399.846 297.141 399.874C297.112 399.903 297.096 399.941 297.096 399.982Z" fill="#3CFFA2"/>
<path d="M298.538 404.96C298.621 404.96 298.689 404.892 298.689 404.808C298.689 404.725 298.621 404.657 298.538 404.657C298.454 404.657 298.386 404.725 298.386 404.808C298.386 404.892 298.454 404.96 298.538 404.96Z" fill="#3CFFA2"/>
<path d="M300.346 409.597C300.345 409.635 300.36 409.672 300.385 409.7C300.411 409.728 300.447 409.746 300.485 409.749C300.525 409.749 300.563 409.733 300.592 409.704C300.62 409.676 300.636 409.638 300.636 409.597C300.636 409.557 300.62 409.518 300.592 409.49C300.563 409.462 300.525 409.446 300.485 409.446C300.465 409.446 300.446 409.45 300.428 409.457C300.411 409.465 300.395 409.476 300.382 409.491C300.368 409.505 300.358 409.522 300.352 409.54C300.346 409.559 300.344 409.578 300.346 409.597Z" fill="#3CFFA2"/>
<path d="M283.43 405.971C283.43 406.011 283.446 406.05 283.474 406.078C283.503 406.107 283.541 406.122 283.582 406.122C283.621 406.12 283.658 406.103 283.686 406.075C283.714 406.047 283.73 406.01 283.733 405.971C283.733 405.931 283.717 405.892 283.689 405.864C283.66 405.835 283.622 405.819 283.582 405.819C283.541 405.819 283.503 405.835 283.474 405.864C283.446 405.892 283.43 405.931 283.43 405.971Z" fill="#3CFFA2"/>
<path d="M299.144 395.256C299.143 395.275 299.145 395.295 299.151 395.313C299.157 395.331 299.167 395.348 299.18 395.362C299.193 395.377 299.209 395.388 299.227 395.396C299.245 395.404 299.264 395.408 299.283 395.407C299.324 395.407 299.362 395.391 299.391 395.363C299.419 395.335 299.435 395.296 299.435 395.256C299.435 395.236 299.431 395.217 299.423 395.2C299.416 395.182 299.404 395.166 299.39 395.153C299.376 395.14 299.359 395.13 299.341 395.124C299.322 395.117 299.303 395.115 299.283 395.117C299.247 395.117 299.211 395.131 299.185 395.158C299.159 395.184 299.144 395.219 299.144 395.256Z" fill="#3CFFA2"/>
<path d="M292.419 394.03C292.502 394.03 292.57 393.962 292.57 393.879C292.57 393.795 292.502 393.727 292.419 393.727C292.335 393.727 292.267 393.795 292.267 393.879C292.267 393.962 292.335 394.03 292.419 394.03Z" fill="#3CFFA2"/>
<path d="M291.294 391.781C291.377 391.781 291.445 391.713 291.445 391.629C291.445 391.546 291.377 391.478 291.294 391.478C291.21 391.478 291.142 391.546 291.142 391.629C291.142 391.713 291.21 391.781 291.294 391.781Z" fill="#3CFFA2"/>
<path d="M286.161 416.61C287.732 417.203 289.372 417.598 291.041 417.785H292.04C292.04 417.785 294.568 417.179 294.909 417.065C295.251 416.951 296.174 417.33 296.528 417.065C297.459 416.353 298.274 415.501 298.942 414.538C299.081 414.032 298.31 412.213 298.285 411.846C298.26 411.48 298.791 409.319 298.841 408.599C298.892 407.879 296.755 404.316 296.553 403.734C296.601 402.808 296.811 401.897 297.172 401.043C297.172 401.043 295.415 402.888 295.478 403.317C295.541 403.747 296.325 404.758 296.376 405.074C296.426 405.39 295.276 407.601 295.327 407.917C295.549 408.502 295.715 409.107 295.82 409.724C295.697 409.189 295.415 408.704 295.01 408.334C294.576 408.081 294.154 407.807 293.746 407.512C293.346 406.815 293.068 406.054 292.924 405.263C293.222 404.807 293.388 404.278 293.405 403.734C292.981 402.571 292.425 401.461 291.749 400.424C291.749 400.424 292.027 401.839 291.749 402.168C291.471 402.496 290.485 403.039 290.371 403.305C290.257 403.57 291.281 404.707 291.155 404.998C291.028 405.289 288.765 405.743 288.538 406.059C288.103 407.048 287.871 408.113 287.855 409.193C288.019 409.648 288.563 411.366 288.259 411.72C287.956 412.074 287.273 412.2 287.248 412.061C287.432 411.447 287.513 410.807 287.488 410.166C287.324 409.496 286.603 408.03 286.553 407.639C286.655 406.747 286.872 405.872 287.197 405.036C286.589 405.955 286.093 406.943 285.718 407.98C285.793 408.993 285.924 410.001 286.11 411C286.11 411 285.782 410.785 285.706 410.633C285.671 410.213 285.671 409.79 285.706 409.37C285.296 409.828 284.955 410.343 284.694 410.899C284.593 411.354 285.112 412.491 285.036 412.87C284.96 413.249 284.555 414.133 284.505 414.652C284.454 415.17 285.718 416.37 286.161 416.61ZM297.008 413.186C296.892 413.724 296.691 414.24 296.414 414.715C296.414 414.715 296.528 413.957 296.54 413.666C296.462 413.273 296.348 412.888 296.199 412.516C296.155 412.034 296.29 411.553 296.578 411.164C296.811 411.816 296.955 412.496 297.008 413.186ZM294.884 416.699L295.807 415.89C296.11 415.612 297.071 415.208 297.172 414.942C297.358 414.428 297.501 413.9 297.602 413.363C297.713 413.937 297.751 414.523 297.716 415.106C297.345 415.721 296.839 416.244 296.237 416.635C295.794 416.74 295.335 416.761 294.884 416.699ZM288.247 412.718C288.004 413.144 287.829 413.604 287.728 414.083C287.756 414.535 287.904 414.971 288.158 415.346C288.325 415.686 288.456 416.042 288.55 416.408C288.55 416.408 287.488 415.915 287.286 415.144C287.084 414.374 288.133 412.807 288.247 412.718Z" fill="#3CFFA2"/>
<path d="M295.39 401.548C295.39 401.548 296.49 400.765 296.515 400.171C296.54 399.577 295.832 398.352 295.908 397.871C295.97 397.551 296.076 397.24 296.224 396.949C296.224 396.949 295.061 397.745 295.061 398.402C295.061 399.059 295.756 400.095 295.693 400.411C295.63 400.727 295.39 401.548 295.39 401.548Z" fill="#3CFFA2"/>
<path d="M288.816 405.15C288.936 404.799 289.008 404.433 289.031 404.063C288.963 403.794 288.828 403.546 288.639 403.343C288.547 403.453 288.484 403.586 288.458 403.727C288.431 403.869 288.441 404.015 288.487 404.151C288.626 404.657 288.816 405.15 288.816 405.15Z" fill="#3CFFA2"/>
<path d="M286.098 405.011C286.419 404.503 286.634 403.936 286.73 403.343C286.744 402.666 286.588 401.997 286.275 401.397C286.072 401.16 285.828 400.963 285.554 400.815C285.739 401.094 285.875 401.402 285.959 401.725C285.959 402.003 285.756 402.875 285.731 403.216C285.807 403.823 285.929 404.423 286.098 405.011Z" fill="#3CFFA2"/>
<path d="M293.304 400.474C293.304 400.474 294.125 399.35 293.974 398.617C293.769 397.907 293.415 397.248 292.937 396.684C292.527 396.299 292.154 395.876 291.825 395.42C291.566 394.71 291.566 393.932 291.825 393.221C292.024 392.982 292.269 392.784 292.545 392.64C292.183 392.643 291.828 392.732 291.507 392.899C291.186 393.065 290.909 393.306 290.699 393.601C289.979 394.599 289.056 398.503 289.435 399.388C289.863 400.079 290.421 400.68 291.079 401.157C290.934 400.522 290.862 399.874 290.864 399.223C290.978 398.844 292.128 399.223 292.419 399.464C292.74 399.777 293.036 400.115 293.304 400.474Z" fill="#3CFFA2"/>
<path d="M295.137 405.996C295.137 405.996 295.642 405.465 295.541 405.011C295.44 404.556 294.783 403.873 294.745 403.659C294.761 403.292 294.812 402.929 294.896 402.572C294.896 402.572 294.252 403.835 294.391 404.189C294.53 404.543 294.669 405.15 294.669 405.15C294.669 405.15 294.378 404.96 294.315 404.796C294.266 404.66 294.228 404.521 294.201 404.379C294.201 404.379 293.708 404.985 293.86 405.427C294.137 405.894 294.477 406.319 294.871 406.691C294.862 406.561 294.862 406.43 294.871 406.299C294.871 406.135 294.96 406.224 295.137 405.996Z" fill="#3CFFA2"/>
<g opacity="0.4">
<path d="M291.622 417.785C291.622 417.785 294.618 416.699 295.289 415.17C295.706 414.209 294.581 412.238 294.479 411.935C294.378 411.632 294.479 410.419 294.353 409.938C294.227 409.458 292.077 408.207 291.825 407.879C291.572 407.55 292.191 406.224 292.191 406.224C292.191 406.224 290.586 407.487 290.345 408.271C290.105 409.054 291.066 410.444 291.053 410.709C290.917 411.085 290.725 411.438 290.484 411.758C290.246 411.454 290.093 411.092 290.042 410.709C290.042 410.204 290.282 409.951 290.232 409.597C290.181 409.243 289.524 408.574 289.524 408.574C289.705 408.882 289.767 409.246 289.701 409.597C289.524 410.014 288.714 410.861 288.828 411.48C288.942 412.099 289.916 413.603 289.827 414.007C289.771 414.256 289.668 414.492 289.524 414.702C289.38 414.376 289.266 414.038 289.182 413.691C289.094 413.287 289.005 412.744 289.005 412.744C289.005 412.744 288.512 415.41 289.005 416.155C289.766 416.859 290.654 417.413 291.622 417.785Z" fill="white"/>
<path d="M292.419 399.287C292.597 398.919 292.721 398.527 292.785 398.124C292.785 397.732 292.077 397.202 291.749 396.861C291.42 396.519 290.725 395.597 290.788 395.092C290.851 394.586 290.927 394.207 290.927 394.207C290.473 395.431 290.159 396.703 289.991 397.998C290.021 398.54 290.225 399.059 290.573 399.476C290.573 399.476 290.763 398.604 291.18 398.642C291.645 398.736 292.075 398.96 292.419 399.287Z" fill="white"/>
<path d="M295.643 401.157C295.643 401.157 296.287 400.563 296.275 400.158C296.137 399.63 295.924 399.123 295.643 398.655C295.643 398.655 295.921 399.918 295.959 400.209C295.917 400.543 295.81 400.865 295.643 401.157Z" fill="white"/>
<path d="M288.247 416.838C288.247 416.838 286.983 416.029 286.704 415.814C286.401 415.336 286.207 414.796 286.135 414.235C286.135 414.007 286.578 412.971 286.578 412.718C286.578 412.466 285.731 411.455 285.731 411.455C285.854 411.836 285.931 412.23 285.958 412.63C285.958 412.857 284.795 414.171 284.871 414.664C284.947 415.157 285.996 416.041 286.3 416.244C286.933 416.491 287.584 416.69 288.247 416.838Z" fill="white"/>
<path d="M297.425 411.606C297.799 410.698 298.062 409.748 298.209 408.776C297.909 407.81 297.546 406.864 297.122 405.946C297.122 405.946 297.198 407.854 297.273 408.157C297.293 408.583 297.242 409.01 297.122 409.42C296.984 409.128 296.862 408.828 296.755 408.523C296.77 408.13 296.83 407.74 296.932 407.361C296.631 408.087 296.468 408.862 296.452 409.648C296.708 410.333 297.034 410.989 297.425 411.606Z" fill="white"/>
</g>
</g>
<defs>
<clipPath id="clip0_637_721">
<rect width="566" height="503" fill="white"/>
</clipPath>
</defs>
</svg>
