<svg width="32" height="32" viewBox="0 0 32 32" fill="none" xmlns="http://www.w3.org/2000/svg">
<g clip-path="url(#clip0_782_1093)">
<rect width="31.9813" height="31.9813" rx="5.31426" fill="#001C20"/>
<g clip-path="url(#clip1_782_1093)">
<path d="M16.2171 20.1945C16.9698 20.195 17.7057 19.9747 18.3317 19.5617C18.9578 19.1486 19.4459 18.5613 19.7342 17.8739C20.0226 17.1866 20.0983 16.4302 19.9517 15.7003C19.8052 14.9704 19.443 14.2999 18.9109 13.7736C18.3789 13.2473 17.7009 12.8888 16.9627 12.7434C16.2246 12.5981 15.4594 12.6724 14.7639 12.9571C14.0685 13.2417 13.4741 13.7239 13.0559 14.3426C12.6377 14.9612 12.4145 15.6886 12.4145 16.4327C12.4148 17.4299 12.8155 18.3862 13.5285 19.0915C14.2415 19.7968 15.2085 20.1935 16.2171 20.1945ZM15.1406 15.534C15.1847 15.7857 15.3174 16.0139 15.5151 16.1783C15.7128 16.3428 15.9629 16.433 16.2213 16.433C16.4797 16.433 16.7298 16.3428 16.9275 16.1783C17.1252 16.0139 17.2579 15.7857 17.3021 15.534C17.4758 15.7376 17.587 15.986 17.6227 16.2501C17.6584 16.5141 17.617 16.7827 17.5035 17.0243C17.3899 17.2659 17.2089 17.4704 16.9818 17.6136C16.7546 17.7569 16.4908 17.833 16.2213 17.833C15.9519 17.833 15.688 17.7569 15.4609 17.6136C15.2337 17.4704 15.0527 17.2659 14.9391 17.0243C14.8256 16.7827 14.7842 16.5141 14.8199 16.2501C14.8556 15.986 14.9668 15.7376 15.1406 15.534Z" fill="url(#paint0_linear_782_1093)"/>
<path d="M8.30205 22.2178C10.6676 23.624 13.3755 24.3676 16.1358 24.3689H16.2554C19.0052 24.3448 21.6974 23.5869 24.0476 22.1752C26.3977 20.7635 28.3185 18.7505 29.6071 16.3487L29.8666 15.8686L29.5497 15.4216C29.0509 14.7191 24.4336 8.54849 16.1896 8.5H16.0927C7.84271 8.5 3.1908 14.6494 2.68602 15.3518L2.36664 15.7953L2.62382 16.2778C3.92984 18.7351 5.89419 20.79 8.30205 22.2178ZM16.0927 10.2739H16.1788C22.6119 10.3117 26.5664 14.5311 27.747 16.0034C26.5634 17.998 24.8764 19.6548 22.8511 20.8118C23.3296 20.1992 24.5162 18.3863 23.8535 16.2388C23.2997 14.4389 21.8032 13.5744 21.43 13.3722C21.6968 13.8547 22.6346 15.6865 22.0604 17.866C21.4205 20.2973 19.1154 22.3597 16.2733 22.3846H16.2279C13.0963 22.3869 10.6908 19.8941 10.2614 17.2676C9.92884 15.2288 10.8666 13.6016 11.2064 13.06C10.7781 13.2835 8.88338 14.323 8.37023 16.3996C7.89774 18.3153 8.8786 19.9709 9.78291 21.0199C7.57378 19.8471 5.73914 18.0886 4.48506 15.9419C5.67405 14.4791 9.65252 10.2739 16.0927 10.2739Z" fill="url(#paint1_linear_782_1093)"/>
</g>
</g>
<defs>
<linearGradient id="paint0_linear_782_1093" x1="16.2171" y1="57.2054" x2="16.2171" y2="-21.8365" gradientUnits="userSpaceOnUse">
<stop stop-color="#976027"/>
<stop offset="1" stop-color="#FDF3E7"/>
</linearGradient>
<linearGradient id="paint1_linear_782_1093" x1="16.1166" y1="57.2054" x2="16.1166" y2="-21.8365" gradientUnits="userSpaceOnUse">
<stop stop-color="#976027"/>
<stop offset="1" stop-color="#FDF3E7"/>
</linearGradient>
<clipPath id="clip0_782_1093">
<rect width="32" height="32" fill="white"/>
</clipPath>
<clipPath id="clip1_782_1093">
<rect width="27.5" height="15.8654" fill="white" transform="translate(2.36664 8.5)"/>
</clipPath>
</defs>
</svg>
