<svg width="26" height="26" viewBox="0 0 26 26" fill="none" xmlns="http://www.w3.org/2000/svg">
<path d="M13 0C7.75541 0 3.50391 4.25415 3.50391 9.50122C3.50391 15.2777 7.4619 16.6389 9.5385 20.1806C11.4717 23.4764 11.4733 26 13 26C14.5832 26 14.4833 23.649 16.4615 20.1806C18.4392 16.7117 22.4961 15.2777 22.4961 9.50122C22.4961 4.25415 18.2446 0 13 0ZM13 13.1423C11.038 13.1423 9.44745 11.5509 9.44745 9.58811C9.44745 8.60615 9.84506 7.71789 10.4881 7.07444C11.1311 6.4315 12.019 6.03337 13 6.03337C14.962 6.03337 16.552 7.62475 16.552 9.58811C16.552 11.5509 14.962 13.1423 13 13.1423Z" fill="#4CAF50"/>
<path d="M13.0006 0C12.7363 0 12.4747 0.0113242 12.2158 0.0325C17.0932 0.431844 20.9271 4.51857 20.9271 9.50122C20.9271 15.2777 16.8702 16.7117 14.8925 20.1806C13.3257 22.9277 13.0624 24.9735 12.2341 25.7057C12.4464 25.897 12.6925 26 13.0006 26C14.5839 26 14.4839 23.649 16.4621 20.1806C18.4398 16.7117 22.4967 15.2777 22.4967 9.50122C22.4967 4.25415 18.2452 0 13.0006 0Z" fill="#43A047"/>
<path d="M10.488 7.07428L4.2446 13.321C3.78793 12.2804 3.50391 11.0493 3.50391 9.50101C3.50391 6.89913 4.54929 4.54192 6.24223 2.82617L10.488 7.07428Z" fill="#F44336"/>
<path d="M15.537 12.0763C16.1651 11.4352 16.5525 10.5571 16.5525 9.58841C16.5525 7.62505 14.962 6.03372 13.0003 6.03372C12.0192 6.03372 11.1312 6.43169 10.4883 7.07494L16.7775 0.782227C19.0256 1.75799 20.8217 3.5787 21.7669 5.8439L15.5372 12.077L15.537 12.0763Z" fill="#42A5F5"/>
<path d="M16.7772 0.782227L16.2471 1.31269C18.3563 2.55723 19.9428 4.59382 20.5973 7.0138L21.7666 5.8439C20.8214 3.57865 19.0253 1.75799 16.7772 0.782227Z" fill="#2196F3"/>
<path d="M15.5373 12.0763L8.68056 18.9369C7.18972 17.0578 5.27694 15.6764 4.24512 13.321L10.4885 7.07422C9.84558 7.71746 9.44781 8.60598 9.44781 9.58769C9.44781 11.5504 11.0383 13.1418 13.0005 13.1418C13.9941 13.1418 14.8924 12.7335 15.5371 12.0756L15.5373 12.0763Z" fill="#FFC107"/>
<path d="M16.7773 0.781828L10.488 7.07459L6.24228 2.82654C7.96417 1.08134 10.356 0 13.0001 0C14.3424 0 15.62 0.278891 16.7773 0.781828Z" fill="#1E88E5"/>
<path d="M12.9997 0C12.7355 0 12.4738 0.0112734 12.215 0.0325C12.2149 0.0325 12.2149 0.0325508 12.2148 0.0325508C13.6779 0.152344 15.0469 0.604246 16.2468 1.31229L16.777 0.781828C15.6196 0.278891 14.3421 0 12.9997 0Z" fill="#1976D2"/>
</svg>
